<mxGraphModel dx="0" dy="0" grid="1" gridSize="10" guides="1" tooltips="1" connect="1" arrows="1" fold="1" page="0" pageScale="1" background="none" math="0" shadow="0">
  <root>
    <mxCell id="0" />
    <mxCell id="1" parent="0" />
    <mxCell id="node48" parent="1" vertex="1" value="&lt;p style=&quot;margin:0px;margin-top:4px;text-align:center;&quot;&gt;&lt;b&gt;AdminUserInit&lt;/b&gt;&lt;/p&gt;&lt;hr size=&quot;1&quot;/&gt;&lt;p style=&quot;margin:0 0 0 4px;line-height:1.6;&quot;&gt;+ AdminUserInit(AppUserRepository, PasswordEncoder): &lt;/p&gt;&lt;hr size=&quot;1&quot;/&gt;&lt;p style=&quot;margin:0 0 0 4px;line-height:1.6;&quot;&gt;- appUserRepository: AppUserRepository&lt;br/&gt;- passwordEncoder: PasswordEncoder&lt;br/&gt;- defaultAdminPassword: String&lt;/p&gt;&lt;hr size=&quot;1&quot;/&gt;&lt;p style=&quot;margin:0 0 0 4px;line-height:1.6;&quot;&gt;+ onApplicationEvent(ContextRefreshedEvent): void&lt;/p&gt;" style="verticalAlign=top;align=left;overflow=fill;fontSize=14;fontFamily=Helvetica;html=1;rounded=0;shadow=0;comic=0;labelBackgroundColor=none;strokeWidth=1;">
      <mxGeometry x="1545" y="3106" width="393" height="169" as="geometry" />
    </mxCell>
    <mxCell id="node17" parent="1" vertex="1" value="&lt;p style=&quot;margin:0px;margin-top:4px;text-align:center;&quot;&gt;&lt;b&gt;ApiError&lt;/b&gt;&lt;/p&gt;&lt;hr size=&quot;1&quot;/&gt;&lt;p style=&quot;margin:0 0 0 4px;line-height:1.6;&quot;&gt;+ ApiError(Date, HttpStatus, String, OperationType, String): &lt;/p&gt;&lt;hr size=&quot;1&quot;/&gt;&lt;p style=&quot;margin:0 0 0 4px;line-height:1.6;&quot;&gt;- timeStamp: Date&lt;br/&gt;- status: HttpStatus&lt;br/&gt;- message: String&lt;br/&gt;- stackTrace: String&lt;br/&gt;- operationType: OperationType&lt;/p&gt;&lt;hr size=&quot;1&quot;/&gt;&lt;p style=&quot;margin:0 0 0 4px;line-height:1.6;&quot;&gt;+ getTimeStamp(): Date&lt;br/&gt;+ toString(): String&lt;br/&gt;+ hashCode(): int&lt;br/&gt;+ getStatus(): HttpStatus&lt;br/&gt;+ getMessage(): String&lt;br/&gt;+ getOperationType(): OperationType&lt;br/&gt;# canEqual(Object): boolean&lt;br/&gt;+ getStackTrace(): String&lt;br/&gt;+ setTimeStamp(Date): void&lt;br/&gt;+ setStatus(HttpStatus): void&lt;br/&gt;+ setMessage(String): void&lt;br/&gt;+ setOperationType(OperationType): void&lt;br/&gt;+ setStackTrace(String): void&lt;br/&gt;+ equals(Object): boolean&lt;/p&gt;" style="verticalAlign=top;align=left;overflow=fill;fontSize=14;fontFamily=Helvetica;html=1;rounded=0;shadow=0;comic=0;labelBackgroundColor=none;strokeWidth=1;">
      <mxGeometry x="1389" y="1088" width="409" height="529" as="geometry" />
    </mxCell>
    <mxCell id="node74" parent="1" vertex="1" value="&lt;p style=&quot;margin:0px;margin-top:4px;text-align:center;&quot;&gt;&lt;b&gt;AppAccessDeniedHandler&lt;/b&gt;&lt;/p&gt;&lt;hr size=&quot;1&quot;/&gt;&lt;p style=&quot;margin:0 0 0 4px;line-height:1.6;&quot;&gt;+ AppAccessDeniedHandler(): &lt;/p&gt;&lt;hr size=&quot;1&quot;/&gt;&lt;p style=&quot;margin:0 0 0 4px;line-height:1.6;&quot;&gt;+ handle(HttpServletRequest, HttpServletResponse, AccessDeniedException): void&lt;br/&gt;- getErrorMessage(String): String&lt;/p&gt;" style="verticalAlign=top;align=left;overflow=fill;fontSize=14;fontFamily=Helvetica;html=1;rounded=0;shadow=0;comic=0;labelBackgroundColor=none;strokeWidth=1;">
      <mxGeometry x="2682" y="3368" width="476" height="125" as="geometry" />
    </mxCell>
    <mxCell id="node79" parent="1" vertex="1" value="&lt;p style=&quot;margin:0px;margin-top:4px;text-align:center;&quot;&gt;&lt;b&gt;AppAuthenticationEntryPoint&lt;/b&gt;&lt;/p&gt;&lt;hr size=&quot;1&quot;/&gt;&lt;p style=&quot;margin:0 0 0 4px;line-height:1.6;&quot;&gt;+ AppAuthenticationEntryPoint(): &lt;/p&gt;&lt;hr size=&quot;1&quot;/&gt;&lt;p style=&quot;margin:0 0 0 4px;line-height:1.6;&quot;&gt;- getErrorMessage(String): String&lt;br/&gt;+ commence(HttpServletRequest, HttpServletResponse, AuthenticationException): void&lt;/p&gt;" style="verticalAlign=top;align=left;overflow=fill;fontSize=14;fontFamily=Helvetica;html=1;rounded=0;shadow=0;comic=0;labelBackgroundColor=none;strokeWidth=1;">
      <mxGeometry x="-193" y="3558" width="474" height="125" as="geometry" />
    </mxCell>
    <mxCell id="node66" parent="1" vertex="1" value="&lt;p style=&quot;margin:0px;margin-top:4px;text-align:center;&quot;&gt;&lt;b&gt;AppLogoutSuccessHandler&lt;/b&gt;&lt;/p&gt;&lt;hr size=&quot;1&quot;/&gt;&lt;p style=&quot;margin:0 0 0 4px;line-height:1.6;&quot;&gt;+ AppLogoutSuccessHandler(): &lt;/p&gt;&lt;hr size=&quot;1&quot;/&gt;&lt;p style=&quot;margin:0 0 0 4px;line-height:1.6;&quot;&gt;+ onLogoutSuccess(HttpServletRequest, HttpServletResponse, Authentication): void&lt;/p&gt;" style="verticalAlign=top;align=left;overflow=fill;fontSize=14;fontFamily=Helvetica;html=1;rounded=0;shadow=0;comic=0;labelBackgroundColor=none;strokeWidth=1;">
      <mxGeometry x="860" y="3558" width="472" height="99" as="geometry" />
    </mxCell>
    <mxCell id="node25" parent="1" vertex="1" value="&lt;p style=&quot;margin:0px;margin-top:4px;text-align:center;&quot;&gt;&lt;b&gt;AppUser&lt;/b&gt;&lt;/p&gt;&lt;hr size=&quot;1&quot;/&gt;&lt;p style=&quot;margin:0 0 0 4px;line-height:1.6;&quot;&gt;+ AppUser(Long, String, String, String, String, String, Set&amp;lt;Role&amp;gt;): &lt;br/&gt;+ AppUser(): &lt;/p&gt;&lt;hr size=&quot;1&quot;/&gt;&lt;p style=&quot;margin:0 0 0 4px;line-height:1.6;&quot;&gt;- id: Long&lt;br/&gt;- password: String&lt;br/&gt;- lastName: String&lt;br/&gt;- roles: Set&amp;lt;Role&amp;gt;&lt;br/&gt;- firstName: String&lt;br/&gt;- username: String&lt;br/&gt;- email: String&lt;/p&gt;&lt;hr size=&quot;1&quot;/&gt;&lt;p style=&quot;margin:0 0 0 4px;line-height:1.6;&quot;&gt;+ setFirstName(String): void&lt;br/&gt;+ getId(): Long&lt;br/&gt;+ setEmail(String): void&lt;br/&gt;+ equals(Object): boolean&lt;br/&gt;+ hashCode(): int&lt;br/&gt;+ setRoles(Set&amp;lt;Role&amp;gt;): void&lt;br/&gt;+ getUsername(): String&lt;br/&gt;+ getEmail(): String&lt;br/&gt;# canEqual(Object): boolean&lt;br/&gt;+ setUsername(String): void&lt;br/&gt;+ getFirstName(): String&lt;br/&gt;+ setLastName(String): void&lt;br/&gt;+ getLastName(): String&lt;br/&gt;+ getPassword(): String&lt;br/&gt;+ getRoles(): Set&amp;lt;Role&amp;gt;&lt;br/&gt;+ setPassword(String): void&lt;br/&gt;+ toString(): String&lt;br/&gt;+ setId(Long): void&lt;br/&gt;+ builder(): AppUserBuilder&lt;/p&gt;" style="verticalAlign=top;align=left;overflow=fill;fontSize=14;fontFamily=Helvetica;html=1;rounded=0;shadow=0;comic=0;labelBackgroundColor=none;strokeWidth=1;">
      <mxGeometry x="1272" y="-14" width="419" height="721" as="geometry" />
    </mxCell>
    <mxCell id="node44" parent="1" vertex="1" value="&lt;p style=&quot;margin:0px;margin-top:4px;text-align:center;&quot;&gt;&lt;b&gt;AppUserController&lt;/b&gt;&lt;/p&gt;&lt;hr size=&quot;1&quot;/&gt;&lt;p style=&quot;margin:0 0 0 4px;line-height:1.6;&quot;&gt;+ AppUserController(AppUserService, PasswordEncoder, AuthenticationManager, JwtService, UserDetailsService, LogoutSuccessHandler): &lt;/p&gt;&lt;hr size=&quot;1&quot;/&gt;&lt;p style=&quot;margin:0 0 0 4px;line-height:1.6;&quot;&gt;- logoutSuccessHandler: LogoutSuccessHandler&lt;br/&gt;- passwordEncoder: PasswordEncoder&lt;br/&gt;- userDetailsService: UserDetailsService&lt;br/&gt;- appUserService: AppUserService&lt;br/&gt;- jwtService: JwtService&lt;br/&gt;- authenticationManager: AuthenticationManager&lt;br/&gt;- log: Logger&lt;/p&gt;&lt;hr size=&quot;1&quot;/&gt;&lt;p style=&quot;margin:0 0 0 4px;line-height:1.6;&quot;&gt;+ getUserById(Long): ResponseEntity&amp;lt;AppUser&amp;gt;&lt;br/&gt;+ registerUser(AppUser): ResponseEntity&amp;lt;AppUser&amp;gt;&lt;br/&gt;+ fetchUsers(Integer, Integer): Page&amp;lt;AppUser&amp;gt;&lt;br/&gt;+ deleteUserByUsername(String): ResponseEntity&amp;lt;String&amp;gt;&lt;br/&gt;+ logoutUser(HttpServletRequest, HttpServletResponse): ResponseEntity&amp;lt;String&amp;gt;&lt;br/&gt;+ deleteUser(Long): String&lt;br/&gt;+ grantRoles(String, String): ResponseEntity&amp;lt;String&amp;gt;&lt;br/&gt;+ loginUser(UserLogin): ResponseEntity&amp;lt;String&amp;gt;&lt;br/&gt;+ revokeRoles(String, String): ResponseEntity&amp;lt;String&amp;gt;&lt;/p&gt;" style="verticalAlign=top;align=left;overflow=fill;fontSize=14;fontFamily=Helvetica;html=1;rounded=0;shadow=0;comic=0;labelBackgroundColor=none;strokeWidth=1;">
      <mxGeometry x="581" y="1775" width="551" height="457" as="geometry" />
    </mxCell>
    <mxCell id="node24" parent="1" vertex="1" value="&lt;p style=&quot;margin:0px;margin-top:4px;text-align:center;&quot;&gt;&lt;b&gt;AppUserDetailsService&lt;/b&gt;&lt;/p&gt;&lt;hr size=&quot;1&quot;/&gt;&lt;p style=&quot;margin:0 0 0 4px;line-height:1.6;&quot;&gt;+ AppUserDetailsService(AppUserService): &lt;/p&gt;&lt;hr size=&quot;1&quot;/&gt;&lt;p style=&quot;margin:0 0 0 4px;line-height:1.6;&quot;&gt;- appUserService: AppUserService&lt;br/&gt;- log: Logger&lt;/p&gt;&lt;hr size=&quot;1&quot;/&gt;&lt;p style=&quot;margin:0 0 0 4px;line-height:1.6;&quot;&gt;+ loadUserByUsername(String): UserDetails&lt;/p&gt;" style="verticalAlign=top;align=left;overflow=fill;fontSize=14;fontFamily=Helvetica;html=1;rounded=0;shadow=0;comic=0;labelBackgroundColor=none;strokeWidth=1;">
      <mxGeometry x="-193" y="3368" width="306" height="145" as="geometry" />
    </mxCell>
    <mxCell id="node13" parent="1" vertex="1" value="&lt;p style=&quot;margin:0px;margin-top:4px;text-align:center;&quot;&gt;&lt;i&gt;&amp;lt;&amp;lt;interface&amp;gt;&amp;gt;&lt;/i&gt;&lt;br/&gt;&lt;b&gt;AppUserRepository&lt;/b&gt;&lt;/p&gt;&lt;hr size=&quot;1&quot;/&gt;&lt;p style=&quot;margin:0 0 0 4px;line-height:1.6;&quot;&gt;+ findByFirstNameAndLastName(String, String): Optional&amp;lt;AppUser&amp;gt;&lt;br/&gt;+ findByUsername(String): Optional&amp;lt;AppUser&amp;gt;&lt;/p&gt;" style="verticalAlign=top;align=left;overflow=fill;fontSize=14;fontFamily=Helvetica;html=1;rounded=0;shadow=0;comic=0;labelBackgroundColor=none;strokeWidth=1;">
      <mxGeometry x="356" y="3719" width="459" height="109" as="geometry" />
    </mxCell>
    <mxCell id="node83" parent="1" vertex="1" value="&lt;p style=&quot;margin:0px;margin-top:4px;text-align:center;&quot;&gt;&lt;i&gt;&amp;lt;&amp;lt;interface&amp;gt;&amp;gt;&lt;/i&gt;&lt;br/&gt;&lt;b&gt;AppUserService&lt;/b&gt;&lt;/p&gt;&lt;hr size=&quot;1&quot;/&gt;&lt;p style=&quot;margin:0 0 0 4px;line-height:1.6;&quot;&gt;+ registerUser(AppUser): AppUser&lt;br/&gt;+ deleteUserById(Long): String&lt;br/&gt;+ getUserById(Long): AppUser&lt;br/&gt;+ getUserByUsername(String): Optional&amp;lt;AppUser&amp;gt;&lt;br/&gt;+ getAllUsers(Integer, Integer): Page&amp;lt;AppUser&amp;gt;&lt;br/&gt;+ revokeRoles(String, String): String&lt;br/&gt;+ grantRoles(String, String): String&lt;br/&gt;+ deleteUserByUsername(String): String&lt;/p&gt;" style="verticalAlign=top;align=left;overflow=fill;fontSize=14;fontFamily=Helvetica;html=1;rounded=0;shadow=0;comic=0;labelBackgroundColor=none;strokeWidth=1;">
      <mxGeometry x="-144" y="1088" width="354" height="231" as="geometry" />
    </mxCell>
    <mxCell id="node19" parent="1" vertex="1" value="&lt;p style=&quot;margin:0px;margin-top:4px;text-align:center;&quot;&gt;&lt;b&gt;AppUserServiceImpl&lt;/b&gt;&lt;/p&gt;&lt;hr size=&quot;1&quot;/&gt;&lt;p style=&quot;margin:0 0 0 4px;line-height:1.6;&quot;&gt;+ AppUserServiceImpl(AppUserRepository, StudentAppUserRepository, StudentService): &lt;/p&gt;&lt;hr size=&quot;1&quot;/&gt;&lt;p style=&quot;margin:0 0 0 4px;line-height:1.6;&quot;&gt;- studentService: StudentService&lt;br/&gt;- appUserRepository: AppUserRepository&lt;br/&gt;- log: Logger&lt;br/&gt;- studentAppUserRepository: StudentAppUserRepository&lt;/p&gt;&lt;hr size=&quot;1&quot;/&gt;&lt;p style=&quot;margin:0 0 0 4px;line-height:1.6;&quot;&gt;+ registerUser(AppUser): AppUser&lt;br/&gt;+ getUserByUsername(String): Optional&amp;lt;AppUser&amp;gt;&lt;br/&gt;+ grantRoles(String, String): String&lt;br/&gt;+ deleteUserByUsername(String): String&lt;br/&gt;+ getUserById(Long): AppUser&lt;br/&gt;+ deleteUserById(Long): String&lt;br/&gt;+ getAllUsers(Integer, Integer): Page&amp;lt;AppUser&amp;gt;&lt;br/&gt;+ revokeRoles(String, String): String&lt;/p&gt;" style="verticalAlign=top;align=left;overflow=fill;fontSize=14;fontFamily=Helvetica;html=1;rounded=0;shadow=0;comic=0;labelBackgroundColor=none;strokeWidth=1;">
      <mxGeometry x="-193" y="1369" width="452" height="361" as="geometry" />
    </mxCell>
    <mxCell id="node54" parent="1" vertex="1" value="&lt;p style=&quot;margin:0px;margin-top:4px;text-align:center;&quot;&gt;&lt;b&gt;ApplicationConfiguration&lt;/b&gt;&lt;/p&gt;&lt;hr size=&quot;1&quot;/&gt;&lt;p style=&quot;margin:0 0 0 4px;line-height:1.6;&quot;&gt;+ ApplicationConfiguration(LocalDateDeserializer): &lt;/p&gt;&lt;hr size=&quot;1&quot;/&gt;&lt;p style=&quot;margin:0 0 0 4px;line-height:1.6;&quot;&gt;- mailUsername: String&lt;br/&gt;- mailPassword: String&lt;br/&gt;- mailPort: Integer&lt;br/&gt;- formRecognizerKey: String&lt;br/&gt;+ AZURE_API_KEY_HEADER: String&lt;br/&gt;- localDateDeserializer: LocalDateDeserializer&lt;br/&gt;- cachingDurationInHours: Long&lt;br/&gt;- JSON_SCHEMA_PATH: String&lt;br/&gt;- formRecognizerEndpoint: String&lt;br/&gt;- mailHost: String&lt;/p&gt;&lt;hr size=&quot;1&quot;/&gt;&lt;p style=&quot;margin:0 0 0 4px;line-height:1.6;&quot;&gt;+ getDocumentanalysisClient(): DocumentAnalysisClient&lt;br/&gt;+ getGsonLocalDateDeserializer(): Gson&lt;br/&gt;+ jsonSchema(): JsonSchema&lt;br/&gt;+ getRestTemplate(): RestTemplate&lt;br/&gt;+ openAPI(): OpenAPI&lt;br/&gt;+ cacheManager(RedisConnectionFactory): CacheManager&lt;br/&gt;+ javaMailSender(): JavaMailSender&lt;br/&gt;- createAPIKeyScheme(): SecurityScheme&lt;/p&gt;" style="verticalAlign=top;align=left;overflow=fill;fontSize=14;fontFamily=Helvetica;html=1;rounded=0;shadow=0;comic=0;labelBackgroundColor=none;strokeWidth=1;">
      <mxGeometry x="2381" y="1088" width="401" height="505" as="geometry" />
    </mxCell>
    <mxCell id="node14" parent="1" vertex="1" value="&lt;p style=&quot;margin:0px;margin-top:4px;text-align:center;&quot;&gt;&lt;b&gt;ApplicationExceptionHandler&lt;/b&gt;&lt;/p&gt;&lt;hr size=&quot;1&quot;/&gt;&lt;p style=&quot;margin:0 0 0 4px;line-height:1.6;&quot;&gt;+ ApplicationExceptionHandler(): &lt;/p&gt;&lt;hr size=&quot;1&quot;/&gt;&lt;p style=&quot;margin:0 0 0 4px;line-height:1.6;&quot;&gt;- log: Logger&lt;br/&gt;+ POINT_UNICODE: String&lt;/p&gt;&lt;hr size=&quot;1&quot;/&gt;&lt;p style=&quot;margin:0 0 0 4px;line-height:1.6;&quot;&gt;+ handleInvalidUserCredentialsException(InvalidUserCredentialsException): ResponseEntity&amp;lt;Object&amp;gt;&lt;br/&gt;+ handleInvalidDateException(InvalidDateException): ResponseEntity&amp;lt;Object&amp;gt;&lt;br/&gt;- getErrorMessageForFieldViolation(String): String&lt;br/&gt;+ handleTokenExpiredException(ExpiredJwtException): ResponseEntity&amp;lt;Object&amp;gt;&lt;br/&gt;+ handleStudentNotFoundException(StudentNotFoundException): ResponseEntity&amp;lt;Object&amp;gt;&lt;br/&gt;+ handleInvalidStudentException(InvalidStudentException): ResponseEntity&amp;lt;Object&amp;gt;&lt;br/&gt;+ handleReportNotFoundException(StudentNotFoundException): ResponseEntity&amp;lt;Object&amp;gt;&lt;br/&gt;- getStackTraceAsString(Throwable): String&lt;br/&gt;+ handleInvalidPassportException(InvalidPassportException): ResponseEntity&amp;lt;Object&amp;gt;&lt;br/&gt;+ handleTokenNotFoundException(TokenNotFoundException): ResponseEntity&amp;lt;Object&amp;gt;&lt;br/&gt;+ handleConstraintViolationException(ConstraintViolationException): ResponseEntity&amp;lt;Object&amp;gt;&lt;br/&gt;+ handlePassportValidationDataNotFoundException(PassportValidationDataNotFoundException): ResponseEntity&amp;lt;Object&amp;gt;&lt;br/&gt;+ handleInvalidGenderException(HttpMessageNotReadableException): ResponseEntity&amp;lt;Object&amp;gt;&lt;br/&gt;+ handleUserNotFoundException(UserNotFoundException): ResponseEntity&amp;lt;Object&amp;gt;&lt;br/&gt;- formatInvalidFieldsMap(Map&amp;lt;String, String&amp;gt;): String&lt;br/&gt;+ handleInvalidDateFormatException(DateTimeParseException): ResponseEntity&amp;lt;Object&amp;gt;&lt;br/&gt;+ handleValidationExceptions(MethodArgumentNotValidException): ResponseEntity&amp;lt;Object&amp;gt;&lt;br/&gt;+ handleInvalidFacesException(InvalidFacesException): ResponseEntity&amp;lt;Object&amp;gt;&lt;/p&gt;" style="verticalAlign=top;align=left;overflow=fill;fontSize=14;fontFamily=Helvetica;html=1;rounded=0;shadow=0;comic=0;labelBackgroundColor=none;strokeWidth=1;">
      <mxGeometry x="718" y="1088" width="626" height="553" as="geometry" />
    </mxCell>
    <mxCell id="node41" parent="1" vertex="1" value="&lt;p style=&quot;margin:0px;margin-top:4px;text-align:center;&quot;&gt;&lt;b&gt;AuthError&lt;/b&gt;&lt;/p&gt;&lt;hr size=&quot;1&quot;/&gt;&lt;p style=&quot;margin:0 0 0 4px;line-height:1.6;&quot;&gt;+ AuthError(String, String, int): &lt;br/&gt;+ AuthError(): &lt;/p&gt;&lt;hr size=&quot;1&quot;/&gt;&lt;p style=&quot;margin:0 0 0 4px;line-height:1.6;&quot;&gt;- message: String&lt;br/&gt;- error: String&lt;br/&gt;- status: int&lt;/p&gt;&lt;hr size=&quot;1&quot;/&gt;&lt;p style=&quot;margin:0 0 0 4px;line-height:1.6;&quot;&gt;+ getError(): String&lt;br/&gt;+ getMessage(): String&lt;br/&gt;+ toString(): String&lt;br/&gt;+ getStatus(): int&lt;br/&gt;+ setError(String): void&lt;br/&gt;+ setMessage(String): void&lt;br/&gt;+ builder(): AuthErrorBuilder&lt;br/&gt;+ setStatus(int): void&lt;br/&gt;+ equals(Object): boolean&lt;br/&gt;# canEqual(Object): boolean&lt;br/&gt;+ hashCode(): int&lt;/p&gt;" style="verticalAlign=top;align=left;overflow=fill;fontSize=14;fontFamily=Helvetica;html=1;rounded=0;shadow=0;comic=0;labelBackgroundColor=none;strokeWidth=1;">
      <mxGeometry x="2137" y="1775" width="229" height="433" as="geometry" />
    </mxCell>
    <mxCell id="node90" parent="1" vertex="1" value="&lt;p style=&quot;margin:0px;margin-top:4px;text-align:center;&quot;&gt;&lt;b&gt;CountryNameFetcher&lt;/b&gt;&lt;/p&gt;&lt;hr size=&quot;1&quot;/&gt;&lt;p style=&quot;margin:0 0 0 4px;line-height:1.6;&quot;&gt;+ CountryNameFetcher(): &lt;/p&gt;&lt;hr size=&quot;1&quot;/&gt;&lt;p style=&quot;margin:0 0 0 4px;line-height:1.6;&quot;&gt;+ getCountryNameForCode(String): String&lt;/p&gt;" style="verticalAlign=top;align=left;overflow=fill;fontSize=14;fontFamily=Helvetica;html=1;rounded=0;shadow=0;comic=0;labelBackgroundColor=none;strokeWidth=1;">
      <mxGeometry x="1377" y="3558" width="297" height="99" as="geometry" />
    </mxCell>
    <mxCell id="node3" parent="1" vertex="1" value="&lt;p style=&quot;margin:0px;margin-top:4px;text-align:center;&quot;&gt;&lt;b&gt;CountryNames&lt;/b&gt;&lt;/p&gt;&lt;hr size=&quot;1&quot;/&gt;&lt;p style=&quot;margin:0 0 0 4px;line-height:1.6;&quot;&gt;- CountryNames(): &lt;/p&gt;&lt;hr size=&quot;1&quot;/&gt;&lt;p style=&quot;margin:0 0 0 4px;line-height:1.6;&quot;&gt;+ COUNTRIES: String&lt;/p&gt;" style="verticalAlign=top;align=left;overflow=fill;fontSize=14;fontFamily=Helvetica;html=1;rounded=0;shadow=0;comic=0;labelBackgroundColor=none;strokeWidth=1;">
      <mxGeometry x="2030" y="3558" width="167" height="99" as="geometry" />
    </mxCell>
    <mxCell id="node77" parent="1" vertex="1" value="&lt;p style=&quot;margin:0px;margin-top:4px;text-align:center;&quot;&gt;&lt;b&gt;DateDeserializer&lt;/b&gt;&lt;/p&gt;&lt;hr size=&quot;1&quot;/&gt;&lt;p style=&quot;margin:0 0 0 4px;line-height:1.6;&quot;&gt;- DateDeserializer(): &lt;/p&gt;&lt;hr size=&quot;1&quot;/&gt;&lt;p style=&quot;margin:0 0 0 4px;line-height:1.6;&quot;&gt;- DATE_FORMATS: String[]&lt;br/&gt;+ PASSPORT_DATE_COMPONENT_LENGTH: int&lt;br/&gt;- log: Logger&lt;/p&gt;&lt;hr size=&quot;1&quot;/&gt;&lt;p style=&quot;margin:0 0 0 4px;line-height:1.6;&quot;&gt;+ mapStandardPassportDateStringToLocalDate(String): LocalDate&lt;br/&gt;+ mapLocalDateToDateString(LocalDate): String&lt;br/&gt;+ mapDateStringToLocalDate(String): LocalDate?&lt;/p&gt;" style="verticalAlign=top;align=left;overflow=fill;fontSize=14;fontFamily=Helvetica;html=1;rounded=0;shadow=0;comic=0;labelBackgroundColor=none;strokeWidth=1;">
      <mxGeometry x="1303" y="2748" width="440" height="217" as="geometry" />
    </mxCell>
    <mxCell id="node78" parent="1" vertex="1" value="&lt;p style=&quot;margin:0px;margin-top:4px;text-align:center;&quot;&gt;&lt;b&gt;DateValidator&lt;/b&gt;&lt;/p&gt;&lt;hr size=&quot;1&quot;/&gt;&lt;p style=&quot;margin:0 0 0 4px;line-height:1.6;&quot;&gt;- DateValidator(): &lt;/p&gt;&lt;hr size=&quot;1&quot;/&gt;&lt;p style=&quot;margin:0 0 0 4px;line-height:1.6;&quot;&gt;+ validateBirthdate(LocalDate): void&lt;br/&gt;+ validatePassportIssueDate(LocalDate): void&lt;br/&gt;+ validatePassportExpiryDate(LocalDate): void&lt;/p&gt;" style="verticalAlign=top;align=left;overflow=fill;fontSize=14;fontFamily=Helvetica;html=1;rounded=0;shadow=0;comic=0;labelBackgroundColor=none;strokeWidth=1;">
      <mxGeometry x="713" y="3368" width="319" height="140" as="geometry" />
    </mxCell>
    <mxCell id="node81" parent="1" vertex="1" value="&lt;p style=&quot;margin:0px;margin-top:4px;text-align:center;&quot;&gt;&lt;b&gt;ExportValidatorController&lt;/b&gt;&lt;/p&gt;&lt;hr size=&quot;1&quot;/&gt;&lt;p style=&quot;margin:0 0 0 4px;line-height:1.6;&quot;&gt;+ ExportValidatorController(XmlValidator, JsonValidator): &lt;/p&gt;&lt;hr size=&quot;1&quot;/&gt;&lt;p style=&quot;margin:0 0 0 4px;line-height:1.6;&quot;&gt;- xmlValidator: XmlValidator&lt;br/&gt;- jsonValidator: JsonValidator&lt;br/&gt;- INVALID_DATA: Integer&lt;br/&gt;- log: Logger&lt;/p&gt;&lt;hr size=&quot;1&quot;/&gt;&lt;p style=&quot;margin:0 0 0 4px;line-height:1.6;&quot;&gt;+ validateJsonExport(JsonNode): ResponseEntity&amp;lt;Boolean&amp;gt;&lt;br/&gt;+ validateXmlExport(String): ResponseEntity&amp;lt;Boolean&amp;gt;&lt;/p&gt;" style="verticalAlign=top;align=left;overflow=fill;fontSize=14;fontFamily=Helvetica;html=1;rounded=0;shadow=0;comic=0;labelBackgroundColor=none;strokeWidth=1;">
      <mxGeometry x="1788" y="2748" width="411" height="217" as="geometry" />
    </mxCell>
    <mxCell id="node69" parent="1" vertex="1" value="&lt;p style=&quot;margin:0px;margin-top:4px;text-align:center;&quot;&gt;&lt;b&gt;FaceApiResponse&lt;/b&gt;&lt;/p&gt;&lt;hr size=&quot;1&quot;/&gt;&lt;p style=&quot;margin:0 0 0 4px;line-height:1.6;&quot;&gt;+ FaceApiResponse(Boolean, Double): &lt;br/&gt;+ FaceApiResponse(): &lt;/p&gt;&lt;hr size=&quot;1&quot;/&gt;&lt;p style=&quot;margin:0 0 0 4px;line-height:1.6;&quot;&gt;- confidence: Double&lt;br/&gt;- isIdentical: Boolean&lt;/p&gt;&lt;hr size=&quot;1&quot;/&gt;&lt;p style=&quot;margin:0 0 0 4px;line-height:1.6;&quot;&gt;+ getIsIdentical(): Boolean&lt;br/&gt;+ getConfidence(): Double&lt;br/&gt;+ setIsIdentical(Boolean): void&lt;br/&gt;+ setConfidence(Double): void&lt;br/&gt;+ equals(Object): boolean&lt;br/&gt;# canEqual(Object): boolean&lt;br/&gt;+ hashCode(): int&lt;br/&gt;+ toString(): String&lt;/p&gt;" style="verticalAlign=top;align=left;overflow=fill;fontSize=14;fontFamily=Helvetica;html=1;rounded=0;shadow=0;comic=0;labelBackgroundColor=none;strokeWidth=1;">
      <mxGeometry x="2661" y="2318" width="276" height="337" as="geometry" />
    </mxCell>
    <mxCell id="node43" parent="1" vertex="1" value="&lt;p style=&quot;margin:0px;margin-top:4px;text-align:center;&quot;&gt;&lt;i&gt;&amp;lt;&amp;lt;interface&amp;gt;&amp;gt;&lt;/i&gt;&lt;br/&gt;&lt;b&gt;FaceApiService&lt;/b&gt;&lt;/p&gt;&lt;hr size=&quot;1&quot;/&gt;&lt;p style=&quot;margin:0 0 0 4px;line-height:1.6;&quot;&gt;+ validateFacesForPassportNumber(String, Long): boolean&lt;br/&gt;+ deleteFace(String): void&lt;br/&gt;+ getFaceIdForFile(MultipartFile): String&lt;br/&gt;+ getValidityOfFaces(MultipartFile, MultipartFile): FaceApiResponse&lt;/p&gt;" style="verticalAlign=top;align=left;overflow=fill;fontSize=14;fontFamily=Helvetica;html=1;rounded=0;shadow=0;comic=0;labelBackgroundColor=none;strokeWidth=1;">
      <mxGeometry x="2791" y="-14" width="456" height="169" as="geometry" />
    </mxCell>
    <mxCell id="node72" parent="1" vertex="1" value="&lt;p style=&quot;margin:0px;margin-top:4px;text-align:center;&quot;&gt;&lt;b&gt;FaceApiServiceImpl&lt;/b&gt;&lt;/p&gt;&lt;hr size=&quot;1&quot;/&gt;&lt;p style=&quot;margin:0 0 0 4px;line-height:1.6;&quot;&gt;+ FaceApiServiceImpl(RestTemplate, FileUploadService, FacialValidationService): &lt;/p&gt;&lt;hr size=&quot;1&quot;/&gt;&lt;p style=&quot;margin:0 0 0 4px;line-height:1.6;&quot;&gt;- faceApiUrl: String&lt;br/&gt;- restTemplate: RestTemplate&lt;br/&gt;- log: Logger&lt;br/&gt;+ PERCENT_MULTIPLIER: int&lt;br/&gt;- fileUploadService: FileUploadService&lt;br/&gt;- facialValidationService: FacialValidationService&lt;br/&gt;- faceApiKey: String&lt;/p&gt;&lt;hr size=&quot;1&quot;/&gt;&lt;p style=&quot;margin:0 0 0 4px;line-height:1.6;&quot;&gt;+ getListType(): Type&lt;br/&gt;- compareFaces(byte[], byte[]): FaceApiResponse&lt;br/&gt;+ getFaceIdForFile(byte[]): String&lt;br/&gt;+ getValidityOfFaces(MultipartFile, MultipartFile): FaceApiResponse&lt;br/&gt;+ validateFacesForPassportNumber(String, Long): boolean&lt;br/&gt;- getHeaders(): HttpHeaders&lt;br/&gt;+ getFaceIdForFile(MultipartFile): String&lt;br/&gt;+ deleteFace(String): void&lt;br/&gt;- compareFaces(MultipartFile, MultipartFile): FaceApiResponse&lt;br/&gt;+ getValidityOfFaces(byte[], byte[]): FaceApiResponse&lt;/p&gt;" style="verticalAlign=top;align=left;overflow=fill;fontSize=14;fontFamily=Helvetica;html=1;rounded=0;shadow=0;comic=0;labelBackgroundColor=none;strokeWidth=1;">
      <mxGeometry x="2791" y="171" width="456" height="481" as="geometry" />
    </mxCell>
    <mxCell id="node34" parent="1" vertex="1" value="&lt;p style=&quot;margin:0px;margin-top:4px;text-align:center;&quot;&gt;&lt;b&gt;FaceController&lt;/b&gt;&lt;/p&gt;&lt;hr size=&quot;1&quot;/&gt;&lt;p style=&quot;margin:0 0 0 4px;line-height:1.6;&quot;&gt;+ FaceController(FaceApiService): &lt;/p&gt;&lt;hr size=&quot;1&quot;/&gt;&lt;p style=&quot;margin:0 0 0 4px;line-height:1.6;&quot;&gt;- faceApiService: FaceApiService&lt;/p&gt;&lt;hr size=&quot;1&quot;/&gt;&lt;p style=&quot;margin:0 0 0 4px;line-height:1.6;&quot;&gt;+ getSelfieValidationData(MultipartFile, MultipartFile): ResponseEntity&amp;lt;FaceApiResponse&amp;gt;&lt;/p&gt;" style="verticalAlign=top;align=left;overflow=fill;fontSize=14;fontFamily=Helvetica;html=1;rounded=0;shadow=0;comic=0;labelBackgroundColor=none;strokeWidth=1;">
      <mxGeometry x="1077" y="3368" width="599" height="131" as="geometry" />
    </mxCell>
    <mxCell id="node51" parent="1" vertex="1" value="&lt;p style=&quot;margin:0px;margin-top:4px;text-align:center;&quot;&gt;&lt;b&gt;FaceDetectionResponse&lt;/b&gt;&lt;/p&gt;&lt;hr size=&quot;1&quot;/&gt;&lt;p style=&quot;margin:0 0 0 4px;line-height:1.6;&quot;&gt;+ FaceDetectionResponse(String, FaceRectangle): &lt;br/&gt;+ FaceDetectionResponse(): &lt;/p&gt;&lt;hr size=&quot;1&quot;/&gt;&lt;p style=&quot;margin:0 0 0 4px;line-height:1.6;&quot;&gt;- faceRectangle: FaceRectangle&lt;br/&gt;- faceId: String&lt;/p&gt;&lt;hr size=&quot;1&quot;/&gt;&lt;p style=&quot;margin:0 0 0 4px;line-height:1.6;&quot;&gt;+ getFaceId(): String&lt;br/&gt;+ getFaceRectangle(): FaceRectangle&lt;br/&gt;+ setFaceId(String): void&lt;br/&gt;+ setFaceRectangle(FaceRectangle): void&lt;br/&gt;+ equals(Object): boolean&lt;br/&gt;# canEqual(Object): boolean&lt;br/&gt;+ hashCode(): int&lt;br/&gt;+ toString(): String&lt;/p&gt;" style="verticalAlign=top;align=left;overflow=fill;fontSize=14;fontFamily=Helvetica;html=1;rounded=0;shadow=0;comic=0;labelBackgroundColor=none;strokeWidth=1;">
      <mxGeometry x="1941" y="2318" width="352" height="337" as="geometry" />
    </mxCell>
    <mxCell id="node59" parent="1" vertex="1" value="&lt;p style=&quot;margin:0px;margin-top:4px;text-align:center;&quot;&gt;&lt;b&gt;FaceRectangle&lt;/b&gt;&lt;/p&gt;&lt;hr size=&quot;1&quot;/&gt;&lt;p style=&quot;margin:0 0 0 4px;line-height:1.6;&quot;&gt;+ FaceRectangle(): &lt;/p&gt;&lt;hr size=&quot;1&quot;/&gt;&lt;p style=&quot;margin:0 0 0 4px;line-height:1.6;&quot;&gt;- height: Integer&lt;br/&gt;- width: Integer&lt;br/&gt;- top: Integer&lt;br/&gt;- left: Integer&lt;/p&gt;&lt;hr size=&quot;1&quot;/&gt;&lt;p style=&quot;margin:0 0 0 4px;line-height:1.6;&quot;&gt;+ getWidth(): Integer&lt;br/&gt;+ getTop(): Integer&lt;br/&gt;+ getLeft(): Integer&lt;br/&gt;+ getHeight(): Integer&lt;br/&gt;+ setTop(Integer): void&lt;br/&gt;+ setLeft(Integer): void&lt;br/&gt;+ setWidth(Integer): void&lt;br/&gt;+ setHeight(Integer): void&lt;br/&gt;+ equals(Object): boolean&lt;br/&gt;# canEqual(Object): boolean&lt;br/&gt;+ toString(): String&lt;br/&gt;+ hashCode(): int&lt;br/&gt;+ getArea(): Integer&lt;/p&gt;" style="verticalAlign=top;align=left;overflow=fill;fontSize=14;fontFamily=Helvetica;html=1;rounded=0;shadow=0;comic=0;labelBackgroundColor=none;strokeWidth=1;">
      <mxGeometry x="327" y="1775" width="209" height="481" as="geometry" />
    </mxCell>
    <mxCell id="node84" parent="1" vertex="1" value="&lt;p style=&quot;margin:0px;margin-top:4px;text-align:center;&quot;&gt;&lt;b&gt;FaceValidationDataNotFoundException&lt;/b&gt;&lt;/p&gt;&lt;hr size=&quot;1&quot;/&gt;&lt;p style=&quot;margin:0 0 0 4px;line-height:1.6;&quot;&gt;+ FaceValidationDataNotFoundException(String): &lt;/p&gt;" style="verticalAlign=top;align=left;overflow=fill;fontSize=14;fontFamily=Helvetica;html=1;rounded=0;shadow=0;comic=0;labelBackgroundColor=none;strokeWidth=1;">
      <mxGeometry x="1715" y="3719" width="356" height="68" as="geometry" />
    </mxCell>
    <mxCell id="node8" parent="1" vertex="1" value="&lt;p style=&quot;margin:0px;margin-top:4px;text-align:center;&quot;&gt;&lt;b&gt;FacialValidationController&lt;/b&gt;&lt;/p&gt;&lt;hr size=&quot;1&quot;/&gt;&lt;p style=&quot;margin:0 0 0 4px;line-height:1.6;&quot;&gt;+ FacialValidationController(FacialValidationService): &lt;/p&gt;&lt;hr size=&quot;1&quot;/&gt;&lt;p style=&quot;margin:0 0 0 4px;line-height:1.6;&quot;&gt;- facialValidationService: FacialValidationService&lt;/p&gt;&lt;hr size=&quot;1&quot;/&gt;&lt;p style=&quot;margin:0 0 0 4px;line-height:1.6;&quot;&gt;+ deleteFacialValidationDataByPassportNumber(String): ResponseEntity&amp;lt;String&amp;gt;&lt;br/&gt;+ getFacialValidationDataByPassportNumber(String): ResponseEntity&amp;lt;FacialValidationData&amp;gt;&lt;br/&gt;+ setFacialValidationDataToValid(String): ResponseEntity&amp;lt;String&amp;gt;&lt;br/&gt;+ getAllFacialValidationData(Integer, Integer): Page&amp;lt;FacialValidationData&amp;gt;&lt;/p&gt;" style="verticalAlign=top;align=left;overflow=fill;fontSize=14;fontFamily=Helvetica;html=1;rounded=0;shadow=0;comic=0;labelBackgroundColor=none;strokeWidth=1;">
      <mxGeometry x="92" y="3106" width="604" height="193" as="geometry" />
    </mxCell>
    <mxCell id="node88" parent="1" vertex="1" value="&lt;p style=&quot;margin:0px;margin-top:4px;text-align:center;&quot;&gt;&lt;b&gt;FacialValidationData&lt;/b&gt;&lt;/p&gt;&lt;hr size=&quot;1&quot;/&gt;&lt;p style=&quot;margin:0 0 0 4px;line-height:1.6;&quot;&gt;+ FacialValidationData(): &lt;br/&gt;+ FacialValidationData(Long, String, Boolean, Double): &lt;/p&gt;&lt;hr size=&quot;1&quot;/&gt;&lt;p style=&quot;margin:0 0 0 4px;line-height:1.6;&quot;&gt;- isValid: Boolean&lt;br/&gt;- passportNumber: String&lt;br/&gt;- percentage: Double&lt;br/&gt;- id: Long&lt;/p&gt;&lt;hr size=&quot;1&quot;/&gt;&lt;p style=&quot;margin:0 0 0 4px;line-height:1.6;&quot;&gt;+ builder(): FacialValidationDataBuilder&lt;br/&gt;+ getId(): Long&lt;br/&gt;+ hashCode(): int&lt;br/&gt;+ getPassportNumber(): String&lt;br/&gt;+ toString(): String&lt;br/&gt;+ getIsValid(): Boolean&lt;br/&gt;+ getPercentage(): Double&lt;br/&gt;+ setId(Long): void&lt;br/&gt;+ setPassportNumber(String): void&lt;br/&gt;+ setIsValid(Boolean): void&lt;br/&gt;+ setPercentage(Double): void&lt;br/&gt;+ equals(Object): boolean&lt;br/&gt;# canEqual(Object): boolean&lt;/p&gt;" style="verticalAlign=top;align=left;overflow=fill;fontSize=14;fontFamily=Helvetica;html=1;rounded=0;shadow=0;comic=0;labelBackgroundColor=none;strokeWidth=1;">
      <mxGeometry x="2827" y="1088" width="372" height="505" as="geometry" />
    </mxCell>
    <mxCell id="node5" parent="1" vertex="1" value="&lt;p style=&quot;margin:0px;margin-top:4px;text-align:center;&quot;&gt;&lt;i&gt;&amp;lt;&amp;lt;interface&amp;gt;&amp;gt;&lt;/i&gt;&lt;br/&gt;&lt;b&gt;FacialValidationDataRepository&lt;/b&gt;&lt;/p&gt;&lt;hr size=&quot;1&quot;/&gt;&lt;p style=&quot;margin:0 0 0 4px;line-height:1.6;&quot;&gt;+ getFacialValidationDataByPassportNumber(String): Optional&amp;lt;FacialValidationData&amp;gt;&lt;br/&gt;+ deleteFacialValidationDataByPassportNumber(String): void&lt;/p&gt;" style="verticalAlign=top;align=left;overflow=fill;fontSize=14;fontFamily=Helvetica;html=1;rounded=0;shadow=0;comic=0;labelBackgroundColor=none;strokeWidth=1;">
      <mxGeometry x="2885" y="3558" width="558" height="109" as="geometry" />
    </mxCell>
    <mxCell id="node60" parent="1" vertex="1" value="&lt;p style=&quot;margin:0px;margin-top:4px;text-align:center;&quot;&gt;&lt;i&gt;&amp;lt;&amp;lt;interface&amp;gt;&amp;gt;&lt;/i&gt;&lt;br/&gt;&lt;b&gt;FacialValidationService&lt;/b&gt;&lt;/p&gt;&lt;hr size=&quot;1&quot;/&gt;&lt;p style=&quot;margin:0 0 0 4px;line-height:1.6;&quot;&gt;+ setFacialValidationToInvalid(Long): String&lt;br/&gt;+ deleteFacialValidationDataByPassportNumber(String): String&lt;br/&gt;+ getAllFacialValidationData(Integer, Integer): Page&amp;lt;FacialValidationData&amp;gt;&lt;br/&gt;+ saveFacialValidationData(FacialValidationData): void&lt;br/&gt;+ getFacialValidationDataByPassportNumber(String): FacialValidationData&lt;br/&gt;+ setFacialValidationToValid(String): String&lt;/p&gt;" style="verticalAlign=top;align=left;overflow=fill;fontSize=14;fontFamily=Helvetica;html=1;rounded=0;shadow=0;comic=0;labelBackgroundColor=none;strokeWidth=1;">
      <mxGeometry x="1843" y="1088" width="493" height="183" as="geometry" />
    </mxCell>
    <mxCell id="node10" parent="1" vertex="1" value="&lt;p style=&quot;margin:0px;margin-top:4px;text-align:center;&quot;&gt;&lt;b&gt;FacialValidationServiceImpl&lt;/b&gt;&lt;/p&gt;&lt;hr size=&quot;1&quot;/&gt;&lt;p style=&quot;margin:0 0 0 4px;line-height:1.6;&quot;&gt;+ FacialValidationServiceImpl(FacialValidationDataRepository, StudentRepository): &lt;/p&gt;&lt;hr size=&quot;1&quot;/&gt;&lt;p style=&quot;margin:0 0 0 4px;line-height:1.6;&quot;&gt;- repository: FacialValidationDataRepository&lt;br/&gt;- studentRepository: StudentRepository&lt;br/&gt;- log: Logger&lt;/p&gt;&lt;hr size=&quot;1&quot;/&gt;&lt;p style=&quot;margin:0 0 0 4px;line-height:1.6;&quot;&gt;+ getAllFacialValidationData(Integer, Integer): Page&amp;lt;FacialValidationData&amp;gt;&lt;br/&gt;+ deleteFacialValidationDataByPassportNumber(String): String&lt;br/&gt;+ setFacialValidationToInvalid(Long): String&lt;br/&gt;+ getFacialValidationDataByPassportNumber(String): FacialValidationData&lt;br/&gt;+ setFacialValidationToValid(String): String&lt;br/&gt;+ saveFacialValidationData(FacialValidationData): void&lt;/p&gt;" style="verticalAlign=top;align=left;overflow=fill;fontSize=14;fontFamily=Helvetica;html=1;rounded=0;shadow=0;comic=0;labelBackgroundColor=none;strokeWidth=1;">
      <mxGeometry x="1843" y="1321" width="493" height="289" as="geometry" />
    </mxCell>
    <mxCell id="node38" parent="1" vertex="1" value="&lt;p style=&quot;margin:0px;margin-top:4px;text-align:center;&quot;&gt;&lt;b&gt;FileUploadController&lt;/b&gt;&lt;/p&gt;&lt;hr size=&quot;1&quot;/&gt;&lt;p style=&quot;margin:0 0 0 4px;line-height:1.6;&quot;&gt;+ FileUploadController(FileUploadService, StudentService, FaceApiService, FormRecognizerService, PassportValidationService): &lt;/p&gt;&lt;hr size=&quot;1&quot;/&gt;&lt;p style=&quot;margin:0 0 0 4px;line-height:1.6;&quot;&gt;- log: Logger&lt;br/&gt;- faceApiService: FaceApiService&lt;br/&gt;- fileUploadService: FileUploadService&lt;br/&gt;- formRecognizerService: FormRecognizerService&lt;br/&gt;- studentService: StudentService&lt;br/&gt;- passportValidationService: PassportValidationService&lt;/p&gt;&lt;hr size=&quot;1&quot;/&gt;&lt;p style=&quot;margin:0 0 0 4px;line-height:1.6;&quot;&gt;+ uploadImage(Long, MultipartFile, MultipartFile): ResponseEntity&amp;lt;String&amp;gt;&lt;br/&gt;+ getImagesForStudentId(Long): ResponseEntity&amp;lt;StudentImage&amp;gt;&lt;br/&gt;+ deleteImage(Long): ResponseEntity&amp;lt;String&amp;gt;&lt;br/&gt;+ getAllImages(Integer, Integer): Page&amp;lt;StudentImage&amp;gt;&lt;br/&gt;+ changeImage(Long, StudentImageType, MultipartFile): ResponseEntity&amp;lt;String&amp;gt;&lt;br/&gt;+ getImageForType(Long, StudentImageType): ResponseEntity&amp;lt;byte[]&amp;gt;&lt;/p&gt;" style="verticalAlign=top;align=left;overflow=fill;fontSize=14;fontFamily=Helvetica;html=1;rounded=0;shadow=0;comic=0;labelBackgroundColor=none;strokeWidth=1;">
      <mxGeometry x="469" y="2318" width="541" height="361" as="geometry" />
    </mxCell>
    <mxCell id="node22" parent="1" vertex="1" value="&lt;p style=&quot;margin:0px;margin-top:4px;text-align:center;&quot;&gt;&lt;i&gt;&amp;lt;&amp;lt;interface&amp;gt;&amp;gt;&lt;/i&gt;&lt;br/&gt;&lt;b&gt;FileUploadService&lt;/b&gt;&lt;/p&gt;&lt;hr size=&quot;1&quot;/&gt;&lt;p style=&quot;margin:0 0 0 4px;line-height:1.6;&quot;&gt;+ getAllImages(Integer, Integer): Page&amp;lt;StudentImage&amp;gt;&lt;br/&gt;+ deleteImage(Long): String&lt;br/&gt;+ getStudentImageById(Long): StudentImage&lt;br/&gt;+ getImageForType(Long, StudentImageType): byte[]&lt;br/&gt;+ changeImage(Long, StudentImageType, MultipartFile): StudentImage&lt;br/&gt;+ uploadFile(Long, MultipartFile, MultipartFile): String&lt;/p&gt;" style="verticalAlign=top;align=left;overflow=fill;fontSize=14;fontFamily=Helvetica;html=1;rounded=0;shadow=0;comic=0;labelBackgroundColor=none;strokeWidth=1;">
      <mxGeometry x="-193" y="1775" width="475" height="183" as="geometry" />
    </mxCell>
    <mxCell id="node31" parent="1" vertex="1" value="&lt;p style=&quot;margin:0px;margin-top:4px;text-align:center;&quot;&gt;&lt;b&gt;FileUploadServiceImpl&lt;/b&gt;&lt;/p&gt;&lt;hr size=&quot;1&quot;/&gt;&lt;p style=&quot;margin:0 0 0 4px;line-height:1.6;&quot;&gt;+ FileUploadServiceImpl(StudentImageRepository): &lt;/p&gt;&lt;hr size=&quot;1&quot;/&gt;&lt;p style=&quot;margin:0 0 0 4px;line-height:1.6;&quot;&gt;- log: Logger&lt;br/&gt;- studentImageRepository: StudentImageRepository&lt;/p&gt;&lt;hr size=&quot;1&quot;/&gt;&lt;p style=&quot;margin:0 0 0 4px;line-height:1.6;&quot;&gt;+ changeImage(Long, StudentImageType, MultipartFile): StudentImage&lt;br/&gt;+ getAllImages(Integer, Integer): Page&amp;lt;StudentImage&amp;gt;&lt;br/&gt;+ uploadFile(Long, MultipartFile, MultipartFile): String&lt;br/&gt;+ getStudentImageById(Long): StudentImage&lt;br/&gt;+ getImageForType(Long, StudentImageType): byte[]&lt;br/&gt;+ deleteImage(Long): String&lt;/p&gt;" style="verticalAlign=top;align=left;overflow=fill;fontSize=14;fontFamily=Helvetica;html=1;rounded=0;shadow=0;comic=0;labelBackgroundColor=none;strokeWidth=1;">
      <mxGeometry x="-193" y="2008" width="475" height="265" as="geometry" />
    </mxCell>
    <mxCell id="node85" parent="1" vertex="1" value="&lt;p style=&quot;margin:0px;margin-top:4px;text-align:center;&quot;&gt;&lt;b&gt;FormRecognizerController&lt;/b&gt;&lt;/p&gt;&lt;hr size=&quot;1&quot;/&gt;&lt;p style=&quot;margin:0 0 0 4px;line-height:1.6;&quot;&gt;+ FormRecognizerController(FormRecognizerService): &lt;/p&gt;&lt;hr size=&quot;1&quot;/&gt;&lt;p style=&quot;margin:0 0 0 4px;line-height:1.6;&quot;&gt;- formRecognizerService: FormRecognizerService&lt;/p&gt;&lt;hr size=&quot;1&quot;/&gt;&lt;p style=&quot;margin:0 0 0 4px;line-height:1.6;&quot;&gt;+ getDataFromPassport(MultipartFile): ResponseEntity&amp;lt;StudentDto&amp;gt;&lt;/p&gt;" style="verticalAlign=top;align=left;overflow=fill;fontSize=14;fontFamily=Helvetica;html=1;rounded=0;shadow=0;comic=0;labelBackgroundColor=none;strokeWidth=1;">
      <mxGeometry x="1721" y="3368" width="464" height="131" as="geometry" />
    </mxCell>
    <mxCell id="node52" parent="1" vertex="1" value="&lt;p style=&quot;margin:0px;margin-top:4px;text-align:center;&quot;&gt;&lt;i&gt;&amp;lt;&amp;lt;interface&amp;gt;&amp;gt;&lt;/i&gt;&lt;br/&gt;&lt;b&gt;FormRecognizerService&lt;/b&gt;&lt;/p&gt;&lt;hr size=&quot;1&quot;/&gt;&lt;p style=&quot;margin:0 0 0 4px;line-height:1.6;&quot;&gt;+ extractDataFromPassport(MultipartFile): StudentDto&lt;br/&gt;+ isUserValid(String): Boolean&lt;br/&gt;+ deletePassportValidationByPassportNumber(String): String&lt;br/&gt;+ validatePassportManually(Long): String&lt;br/&gt;+ validatePassport(String, MultipartFile): PassportValidationResponse&lt;br/&gt;+ getFieldsFromDocument(MultipartFile): Map&amp;lt;String, DocumentField&amp;gt;&lt;/p&gt;" style="verticalAlign=top;align=left;overflow=fill;fontSize=14;fontFamily=Helvetica;html=1;rounded=0;shadow=0;comic=0;labelBackgroundColor=none;strokeWidth=1;">
      <mxGeometry x="2268" y="-14" width="478" height="183" as="geometry" />
    </mxCell>
    <mxCell id="node71" parent="1" vertex="1" value="&lt;p style=&quot;margin:0px;margin-top:4px;text-align:center;&quot;&gt;&lt;b&gt;FormRecognizerServiceImpl&lt;/b&gt;&lt;/p&gt;&lt;hr size=&quot;1&quot;/&gt;&lt;p style=&quot;margin:0 0 0 4px;line-height:1.6;&quot;&gt;+ FormRecognizerServiceImpl(DocumentAnalysisClient, PassportValidationService, CountryNameFetcher, PassportValidationDataRepository, StudentService, FaceApiService, StudentMapper): &lt;/p&gt;&lt;hr size=&quot;1&quot;/&gt;&lt;p style=&quot;margin:0 0 0 4px;line-height:1.6;&quot;&gt;- passportValidationService: PassportValidationService&lt;br/&gt;- faceApiService: FaceApiService&lt;br/&gt;- validationRepository: PassportValidationDataRepository&lt;br/&gt;- documentAnalysisClient: DocumentAnalysisClient&lt;br/&gt;- countryNameFetcher: CountryNameFetcher&lt;br/&gt;- studentService: StudentService&lt;br/&gt;+ EMPTY_FIELD_VALUE: String&lt;br/&gt;- studentMapper: StudentMapper&lt;br/&gt;- log: Logger&lt;/p&gt;&lt;hr size=&quot;1&quot;/&gt;&lt;p style=&quot;margin:0 0 0 4px;line-height:1.6;&quot;&gt;- getFieldValue(Map&amp;lt;String, DocumentField&amp;gt;, String): String&lt;br/&gt;+ extractDataFromPassport(MultipartFile): StudentDto&lt;br/&gt;+ getFieldsFromDocument(MultipartFile): Map&amp;lt;String, DocumentField&amp;gt;&lt;br/&gt;+ deletePassportValidationByPassportNumber(String): String&lt;br/&gt;+ isUserValid(String): Boolean&lt;br/&gt;+ validatePassport(String, MultipartFile): PassportValidationResponse&lt;br/&gt;+ validatePassportManually(Long): String&lt;/p&gt;" style="verticalAlign=top;align=left;overflow=fill;fontSize=14;fontFamily=Helvetica;html=1;rounded=0;shadow=0;comic=0;labelBackgroundColor=none;strokeWidth=1;">
      <mxGeometry x="2268" y="219" width="478" height="457" as="geometry" />
    </mxCell>
    <mxCell id="node32" parent="1" vertex="1" value="&lt;p style=&quot;margin:0px;margin-top:4px;text-align:center;&quot;&gt;&lt;i&gt;&amp;lt;&amp;lt;enumeration&amp;gt;&amp;gt;&lt;/i&gt;&lt;br/&gt;&lt;b&gt;Gender&lt;/b&gt;&lt;/p&gt;&lt;hr size=&quot;1&quot;/&gt;&lt;p style=&quot;margin:0 0 0 4px;line-height:1.6;&quot;&gt;+ Gender(): &lt;/p&gt;&lt;hr size=&quot;1&quot;/&gt;&lt;p style=&quot;margin:0 0 0 4px;line-height:1.6;&quot;&gt;+ FEMALE: &lt;br/&gt;+ MALE: &lt;/p&gt;&lt;hr size=&quot;1&quot;/&gt;&lt;p style=&quot;margin:0 0 0 4px;line-height:1.6;&quot;&gt;+ valueOf(String): Gender&lt;br/&gt;+ values(): Gender[]&lt;/p&gt;" style="verticalAlign=top;align=left;overflow=fill;fontSize=14;fontFamily=Helvetica;html=1;rounded=0;shadow=0;comic=0;labelBackgroundColor=none;strokeWidth=1;">
      <mxGeometry x="2794" y="3106" width="194" height="169" as="geometry" />
    </mxCell>
    <mxCell id="node7" parent="1" vertex="1" value="&lt;p style=&quot;margin:0px;margin-top:4px;text-align:center;&quot;&gt;&lt;b&gt;ImageCompressor&lt;/b&gt;&lt;/p&gt;&lt;hr size=&quot;1&quot;/&gt;&lt;p style=&quot;margin:0 0 0 4px;line-height:1.6;&quot;&gt;- ImageCompressor(): &lt;/p&gt;&lt;hr size=&quot;1&quot;/&gt;&lt;p style=&quot;margin:0 0 0 4px;line-height:1.6;&quot;&gt;+ DEFAULT_SIZE_LIMIT: int&lt;br/&gt;- log: Logger&lt;br/&gt;+ SCALE_DECREASE_STEP: float&lt;/p&gt;&lt;hr size=&quot;1&quot;/&gt;&lt;p style=&quot;margin:0 0 0 4px;line-height:1.6;&quot;&gt;+ toByteArray(BufferedImage, String): byte[]&lt;br/&gt;+ compressImage(MultipartFile): byte[]&lt;br/&gt;- getFileSize(byte[]): String&lt;/p&gt;" style="verticalAlign=top;align=left;overflow=fill;fontSize=14;fontFamily=Helvetica;html=1;rounded=0;shadow=0;comic=0;labelBackgroundColor=none;strokeWidth=1;">
      <mxGeometry x="2664" y="2748" width="311" height="217" as="geometry" />
    </mxCell>
    <mxCell id="node9" parent="1" vertex="1" value="&lt;p style=&quot;margin:0px;margin-top:4px;text-align:center;&quot;&gt;&lt;b&gt;InvalidDateException&lt;/b&gt;&lt;/p&gt;&lt;hr size=&quot;1&quot;/&gt;&lt;p style=&quot;margin:0 0 0 4px;line-height:1.6;&quot;&gt;+ InvalidDateException(String): &lt;/p&gt;" style="verticalAlign=top;align=left;overflow=fill;fontSize=14;fontFamily=Helvetica;html=1;rounded=0;shadow=0;comic=0;labelBackgroundColor=none;strokeWidth=1;">
      <mxGeometry x="1942" y="3851" width="229" height="68" as="geometry" />
    </mxCell>
    <mxCell id="node86" parent="1" vertex="1" value="&lt;p style=&quot;margin:0px;margin-top:4px;text-align:center;&quot;&gt;&lt;b&gt;InvalidDateFormatException&lt;/b&gt;&lt;/p&gt;&lt;hr size=&quot;1&quot;/&gt;&lt;p style=&quot;margin:0 0 0 4px;line-height:1.6;&quot;&gt;+ InvalidDateFormatException(String): &lt;/p&gt;" style="verticalAlign=top;align=left;overflow=fill;fontSize=14;fontFamily=Helvetica;html=1;rounded=0;shadow=0;comic=0;labelBackgroundColor=none;strokeWidth=1;">
      <mxGeometry x="3155" y="3719" width="273" height="68" as="geometry" />
    </mxCell>
    <mxCell id="node18" parent="1" vertex="1" value="&lt;p style=&quot;margin:0px;margin-top:4px;text-align:center;&quot;&gt;&lt;b&gt;InvalidDocumentException&lt;/b&gt;&lt;/p&gt;&lt;hr size=&quot;1&quot;/&gt;&lt;p style=&quot;margin:0 0 0 4px;line-height:1.6;&quot;&gt;+ InvalidDocumentException(String): &lt;/p&gt;" style="verticalAlign=top;align=left;overflow=fill;fontSize=14;fontFamily=Helvetica;html=1;rounded=0;shadow=0;comic=0;labelBackgroundColor=none;strokeWidth=1;">
      <mxGeometry x="431" y="3851" width="264" height="68" as="geometry" />
    </mxCell>
    <mxCell id="node6" parent="1" vertex="1" value="&lt;p style=&quot;margin:0px;margin-top:4px;text-align:center;&quot;&gt;&lt;b&gt;InvalidFacesApiError&lt;/b&gt;&lt;/p&gt;&lt;hr size=&quot;1&quot;/&gt;&lt;p style=&quot;margin:0 0 0 4px;line-height:1.6;&quot;&gt;+ InvalidFacesApiError(String, Double): &lt;br/&gt;+ InvalidFacesApiError(): &lt;/p&gt;&lt;hr size=&quot;1&quot;/&gt;&lt;p style=&quot;margin:0 0 0 4px;line-height:1.6;&quot;&gt;- percentage: Double&lt;br/&gt;- message: String&lt;/p&gt;&lt;hr size=&quot;1&quot;/&gt;&lt;p style=&quot;margin:0 0 0 4px;line-height:1.6;&quot;&gt;+ getMessage(): String&lt;br/&gt;+ getPercentage(): Double&lt;br/&gt;+ setMessage(String): void&lt;br/&gt;+ setPercentage(Double): void&lt;br/&gt;+ equals(Object): boolean&lt;br/&gt;# canEqual(Object): boolean&lt;br/&gt;+ hashCode(): int&lt;br/&gt;+ toString(): String&lt;/p&gt;" style="verticalAlign=top;align=left;overflow=fill;fontSize=14;fontFamily=Helvetica;html=1;rounded=0;shadow=0;comic=0;labelBackgroundColor=none;strokeWidth=1;">
      <mxGeometry x="2338" y="2318" width="278" height="337" as="geometry" />
    </mxCell>
    <mxCell id="node0" parent="1" vertex="1" value="&lt;p style=&quot;margin:0px;margin-top:4px;text-align:center;&quot;&gt;&lt;b&gt;InvalidFacesException&lt;/b&gt;&lt;/p&gt;&lt;hr size=&quot;1&quot;/&gt;&lt;p style=&quot;margin:0 0 0 4px;line-height:1.6;&quot;&gt;+ InvalidFacesException(String, Double): &lt;/p&gt;&lt;hr size=&quot;1&quot;/&gt;&lt;p style=&quot;margin:0 0 0 4px;line-height:1.6;&quot;&gt;- percentage: Double&lt;/p&gt;&lt;hr size=&quot;1&quot;/&gt;&lt;p style=&quot;margin:0 0 0 4px;line-height:1.6;&quot;&gt;+ getPercentage(): Double&lt;br/&gt;+ equals(Object): boolean&lt;br/&gt;# canEqual(Object): boolean&lt;br/&gt;+ hashCode(): int&lt;br/&gt;+ toString(): String&lt;/p&gt;" style="verticalAlign=top;align=left;overflow=fill;fontSize=14;fontFamily=Helvetica;html=1;rounded=0;shadow=0;comic=0;labelBackgroundColor=none;strokeWidth=1;">
      <mxGeometry x="3020" y="2748" width="289" height="217" as="geometry" />
    </mxCell>
    <mxCell id="node15" parent="1" vertex="1" value="&lt;p style=&quot;margin:0px;margin-top:4px;text-align:center;&quot;&gt;&lt;b&gt;InvalidImageTypeException&lt;/b&gt;&lt;/p&gt;&lt;hr size=&quot;1&quot;/&gt;&lt;p style=&quot;margin:0 0 0 4px;line-height:1.6;&quot;&gt;+ InvalidImageTypeException(String): &lt;/p&gt;" style="verticalAlign=top;align=left;overflow=fill;fontSize=14;fontFamily=Helvetica;html=1;rounded=0;shadow=0;comic=0;labelBackgroundColor=none;strokeWidth=1;">
      <mxGeometry x="-193" y="3851" width="268" height="68" as="geometry" />
    </mxCell>
    <mxCell id="node75" parent="1" vertex="1" value="&lt;p style=&quot;margin:0px;margin-top:4px;text-align:center;&quot;&gt;&lt;b&gt;InvalidPassportException&lt;/b&gt;&lt;/p&gt;&lt;hr size=&quot;1&quot;/&gt;&lt;p style=&quot;margin:0 0 0 4px;line-height:1.6;&quot;&gt;+ InvalidPassportException(String): &lt;/p&gt;" style="verticalAlign=top;align=left;overflow=fill;fontSize=14;fontFamily=Helvetica;html=1;rounded=0;shadow=0;comic=0;labelBackgroundColor=none;strokeWidth=1;">
      <mxGeometry x="1048" y="3851" width="255" height="68" as="geometry" />
    </mxCell>
    <mxCell id="node89" parent="1" vertex="1" value="&lt;p style=&quot;margin:0px;margin-top:4px;text-align:center;&quot;&gt;&lt;b&gt;InvalidStudentException&lt;/b&gt;&lt;/p&gt;&lt;hr size=&quot;1&quot;/&gt;&lt;p style=&quot;margin:0 0 0 4px;line-height:1.6;&quot;&gt;+ InvalidStudentException(String): &lt;/p&gt;" style="verticalAlign=top;align=left;overflow=fill;fontSize=14;fontFamily=Helvetica;html=1;rounded=0;shadow=0;comic=0;labelBackgroundColor=none;strokeWidth=1;">
      <mxGeometry x="1647" y="3851" width="250" height="68" as="geometry" />
    </mxCell>
    <mxCell id="node64" parent="1" vertex="1" value="&lt;p style=&quot;margin:0px;margin-top:4px;text-align:center;&quot;&gt;&lt;b&gt;InvalidUserCredentialsException&lt;/b&gt;&lt;/p&gt;&lt;hr size=&quot;1&quot;/&gt;&lt;p style=&quot;margin:0 0 0 4px;line-height:1.6;&quot;&gt;+ InvalidUserCredentialsException(String): &lt;/p&gt;" style="verticalAlign=top;align=left;overflow=fill;fontSize=14;fontFamily=Helvetica;html=1;rounded=0;shadow=0;comic=0;labelBackgroundColor=none;strokeWidth=1;">
      <mxGeometry x="2483" y="3719" width="303" height="68" as="geometry" />
    </mxCell>
    <mxCell id="node21" parent="1" vertex="1" value="&lt;p style=&quot;margin:0px;margin-top:4px;text-align:center;&quot;&gt;&lt;b&gt;JsonValidator&lt;/b&gt;&lt;/p&gt;&lt;hr size=&quot;1&quot;/&gt;&lt;p style=&quot;margin:0 0 0 4px;line-height:1.6;&quot;&gt;+ JsonValidator(JsonSchema): &lt;/p&gt;&lt;hr size=&quot;1&quot;/&gt;&lt;p style=&quot;margin:0 0 0 4px;line-height:1.6;&quot;&gt;- log: Logger&lt;br/&gt;- jsonSchema: JsonSchema&lt;/p&gt;&lt;hr size=&quot;1&quot;/&gt;&lt;p style=&quot;margin:0 0 0 4px;line-height:1.6;&quot;&gt;+ isJsonValid(JsonNode): boolean&lt;/p&gt;" style="verticalAlign=top;align=left;overflow=fill;fontSize=14;fontFamily=Helvetica;html=1;rounded=0;shadow=0;comic=0;labelBackgroundColor=none;strokeWidth=1;">
      <mxGeometry x="158" y="3368" width="246" height="145" as="geometry" />
    </mxCell>
    <mxCell id="node4" parent="1" vertex="1" value="&lt;p style=&quot;margin:0px;margin-top:4px;text-align:center;&quot;&gt;&lt;b&gt;JwtAuthFilter&lt;/b&gt;&lt;/p&gt;&lt;hr size=&quot;1&quot;/&gt;&lt;p style=&quot;margin:0 0 0 4px;line-height:1.6;&quot;&gt;+ JwtAuthFilter(JwtService, UserDetailsService): &lt;/p&gt;&lt;hr size=&quot;1&quot;/&gt;&lt;p style=&quot;margin:0 0 0 4px;line-height:1.6;&quot;&gt;~ TOKEN_START_INDEX: int&lt;br/&gt;- jwtService: JwtService&lt;br/&gt;- userDetailsService: UserDetailsService&lt;/p&gt;&lt;hr size=&quot;1&quot;/&gt;&lt;p style=&quot;margin:0 0 0 4px;line-height:1.6;&quot;&gt;# doFilterInternal(HttpServletRequest, HttpServletResponse, FilterChain): void&lt;/p&gt;" style="verticalAlign=top;align=left;overflow=fill;fontSize=14;fontFamily=Helvetica;html=1;rounded=0;shadow=0;comic=0;labelBackgroundColor=none;strokeWidth=1;">
      <mxGeometry x="1051" y="3106" width="449" height="169" as="geometry" />
    </mxCell>
    <mxCell id="node2" parent="1" vertex="1" value="&lt;p style=&quot;margin:0px;margin-top:4px;text-align:center;&quot;&gt;&lt;b&gt;JwtService&lt;/b&gt;&lt;/p&gt;&lt;hr size=&quot;1&quot;/&gt;&lt;p style=&quot;margin:0 0 0 4px;line-height:1.6;&quot;&gt;- JwtService(): &lt;/p&gt;&lt;hr size=&quot;1&quot;/&gt;&lt;p style=&quot;margin:0 0 0 4px;line-height:1.6;&quot;&gt;- jwtTokenAudience: String&lt;br/&gt;- jwtTokenIssuer: String&lt;br/&gt;- secretKey: String&lt;br/&gt;- expirationTimeInMinutes: Long&lt;/p&gt;&lt;hr size=&quot;1&quot;/&gt;&lt;p style=&quot;margin:0 0 0 4px;line-height:1.6;&quot;&gt;+ setSecretKey(String): void&lt;br/&gt;+ setExpirationTimeInMinutes(Long): void&lt;br/&gt;+ setJwtTokenIssuer(String): void&lt;br/&gt;+ setJwtTokenAudience(String): void&lt;br/&gt;+ getUsername(String): String&lt;br/&gt;- generateSecretKey(): SecretKey&lt;br/&gt;- extractClaims(String): Claims&lt;br/&gt;+ isValidToken(String): boolean&lt;br/&gt;+ generateJwtToken(UserDetails): String&lt;br/&gt;- getExpirationTime(): Date&lt;/p&gt;" style="verticalAlign=top;align=left;overflow=fill;fontSize=14;fontFamily=Helvetica;html=1;rounded=0;shadow=0;comic=0;labelBackgroundColor=none;strokeWidth=1;">
      <mxGeometry x="2411" y="1775" width="293" height="409" as="geometry" />
    </mxCell>
    <mxCell id="node35" parent="1" vertex="1" value="&lt;p style=&quot;margin:0px;margin-top:4px;text-align:center;&quot;&gt;&lt;b&gt;LocalDateDeserializer&lt;/b&gt;&lt;/p&gt;&lt;hr size=&quot;1&quot;/&gt;&lt;p style=&quot;margin:0 0 0 4px;line-height:1.6;&quot;&gt;+ LocalDateDeserializer(): &lt;/p&gt;&lt;hr size=&quot;1&quot;/&gt;&lt;p style=&quot;margin:0 0 0 4px;line-height:1.6;&quot;&gt;+ deserialize(JsonElement, Type, JsonDeserializationContext): LocalDate&lt;/p&gt;" style="verticalAlign=top;align=left;overflow=fill;fontSize=14;fontFamily=Helvetica;html=1;rounded=0;shadow=0;comic=0;labelBackgroundColor=none;strokeWidth=1;">
      <mxGeometry x="326" y="3558" width="489" height="99" as="geometry" />
    </mxCell>
    <mxCell id="node57" parent="1" vertex="1" value="&lt;p style=&quot;margin:0px;margin-top:4px;text-align:center;&quot;&gt;&lt;i&gt;&amp;lt;&amp;lt;interface&amp;gt;&amp;gt;&lt;/i&gt;&lt;br/&gt;&lt;b&gt;MailService&lt;/b&gt;&lt;/p&gt;&lt;hr size=&quot;1&quot;/&gt;&lt;p style=&quot;margin:0 0 0 4px;line-height:1.6;&quot;&gt;+ sendMail(Report): String&lt;/p&gt;" style="verticalAlign=top;align=left;overflow=fill;fontSize=14;fontFamily=Helvetica;html=1;rounded=0;shadow=0;comic=0;labelBackgroundColor=none;strokeWidth=1;">
      <mxGeometry x="3148" y="1775" width="197" height="79" as="geometry" />
    </mxCell>
    <mxCell id="node55" parent="1" vertex="1" value="&lt;p style=&quot;margin:0px;margin-top:4px;text-align:center;&quot;&gt;&lt;b&gt;MailServiceImpl&lt;/b&gt;&lt;/p&gt;&lt;hr size=&quot;1&quot;/&gt;&lt;p style=&quot;margin:0 0 0 4px;line-height:1.6;&quot;&gt;+ MailServiceImpl(JavaMailSender): &lt;/p&gt;&lt;hr size=&quot;1&quot;/&gt;&lt;p style=&quot;margin:0 0 0 4px;line-height:1.6;&quot;&gt;- mailFrom: String&lt;br/&gt;- mailSender: JavaMailSender&lt;br/&gt;~ DATE_TIME_FORMATTER: DateTimeFormatter&lt;br/&gt;- mailTo: String&lt;br/&gt;+ HTML_BODY: String&lt;/p&gt;&lt;hr size=&quot;1&quot;/&gt;&lt;p style=&quot;margin:0 0 0 4px;line-height:1.6;&quot;&gt;+ sendMail(Report): String&lt;br/&gt;+ getMailSender(): JavaMailSender&lt;br/&gt;+ getMailTo(): String&lt;br/&gt;+ getMailFrom(): String&lt;/p&gt;" style="verticalAlign=top;align=left;overflow=fill;fontSize=14;fontFamily=Helvetica;html=1;rounded=0;shadow=0;comic=0;labelBackgroundColor=none;strokeWidth=1;">
      <mxGeometry x="3082" y="1888" width="329" height="289" as="geometry" />
    </mxCell>
    <mxCell id="node65" parent="1" vertex="1" value="&lt;p style=&quot;margin:0px;margin-top:4px;text-align:center;&quot;&gt;&lt;i&gt;&amp;lt;&amp;lt;enumeration&amp;gt;&amp;gt;&lt;/i&gt;&lt;br/&gt;&lt;b&gt;OperationType&lt;/b&gt;&lt;/p&gt;&lt;hr size=&quot;1&quot;/&gt;&lt;p style=&quot;margin:0 0 0 4px;line-height:1.6;&quot;&gt;+ OperationType(): &lt;/p&gt;&lt;hr size=&quot;1&quot;/&gt;&lt;p style=&quot;margin:0 0 0 4px;line-height:1.6;&quot;&gt;+ UPDATE: &lt;br/&gt;+ DELETE: &lt;br/&gt;+ CREATE: &lt;br/&gt;+ READ: &lt;/p&gt;&lt;hr size=&quot;1&quot;/&gt;&lt;p style=&quot;margin:0 0 0 4px;line-height:1.6;&quot;&gt;+ values(): OperationType[]&lt;br/&gt;+ valueOf(String): OperationType&lt;/p&gt;" style="verticalAlign=top;align=left;overflow=fill;fontSize=14;fontFamily=Helvetica;html=1;rounded=0;shadow=0;comic=0;labelBackgroundColor=none;strokeWidth=1;">
      <mxGeometry x="-193" y="3106" width="240" height="217" as="geometry" />
    </mxCell>
    <mxCell id="node63" parent="1" vertex="1" value="&lt;p style=&quot;margin:0px;margin-top:4px;text-align:center;&quot;&gt;&lt;b&gt;PassportNotFoundException&lt;/b&gt;&lt;/p&gt;&lt;hr size=&quot;1&quot;/&gt;&lt;p style=&quot;margin:0 0 0 4px;line-height:1.6;&quot;&gt;+ PassportNotFoundException(String): &lt;/p&gt;" style="verticalAlign=top;align=left;overflow=fill;fontSize=14;fontFamily=Helvetica;html=1;rounded=0;shadow=0;comic=0;labelBackgroundColor=none;strokeWidth=1;">
      <mxGeometry x="2831" y="3719" width="279" height="68" as="geometry" />
    </mxCell>
    <mxCell id="node67" parent="1" vertex="1" value="&lt;p style=&quot;margin:0px;margin-top:4px;text-align:center;&quot;&gt;&lt;b&gt;PassportValidationController&lt;/b&gt;&lt;/p&gt;&lt;hr size=&quot;1&quot;/&gt;&lt;p style=&quot;margin:0 0 0 4px;line-height:1.6;&quot;&gt;+ PassportValidationController(PassportValidationService, FormRecognizerService): &lt;/p&gt;&lt;hr size=&quot;1&quot;/&gt;&lt;p style=&quot;margin:0 0 0 4px;line-height:1.6;&quot;&gt;- formRecognizerService: FormRecognizerService&lt;br/&gt;- passportValidationService: PassportValidationService&lt;br/&gt;- log: Logger&lt;/p&gt;&lt;hr size=&quot;1&quot;/&gt;&lt;p style=&quot;margin:0 0 0 4px;line-height:1.6;&quot;&gt;+ isUserValid(String): ResponseEntity&amp;lt;Boolean&amp;gt;&lt;br/&gt;+ validatePassportManually(Long): ResponseEntity&amp;lt;String&amp;gt;&lt;br/&gt;+ getAllPassportValidationData(Integer, Integer): Page&amp;lt;PassportValidationData&amp;gt;&lt;br/&gt;+ validatePassport(String, MultipartFile): ResponseEntity&amp;lt;PassportValidationResponse&amp;gt;&lt;br/&gt;+ deletePassportValidationData(String): ResponseEntity&amp;lt;String&amp;gt;&lt;br/&gt;+ getPassportValidationByPassportNumber(String): ResponseEntity&amp;lt;StudentDto&amp;gt;&lt;br/&gt;+ createPassportValidationData(PassportValidationData): ResponseEntity&amp;lt;PassportValidationData&amp;gt;&lt;/p&gt;" style="verticalAlign=top;align=left;overflow=fill;fontSize=14;fontFamily=Helvetica;html=1;rounded=0;shadow=0;comic=0;labelBackgroundColor=none;strokeWidth=1;">
      <mxGeometry x="-193" y="2748" width="650" height="313" as="geometry" />
    </mxCell>
    <mxCell id="node46" parent="1" vertex="1" value="&lt;p style=&quot;margin:0px;margin-top:4px;text-align:center;&quot;&gt;&lt;b&gt;PassportValidationData&lt;/b&gt;&lt;/p&gt;&lt;hr size=&quot;1&quot;/&gt;&lt;p style=&quot;margin:0 0 0 4px;line-height:1.6;&quot;&gt;+ PassportValidationData(Long, LocalDateTime, String, String, LocalDate, String, String, Gender, String, LocalDate, LocalDate): &lt;br/&gt;+ PassportValidationData(): &lt;/p&gt;&lt;hr size=&quot;1&quot;/&gt;&lt;p style=&quot;margin:0 0 0 4px;line-height:1.6;&quot;&gt;- firstName: String&lt;br/&gt;- passportDateOfExpiry: LocalDate&lt;br/&gt;- id: Long&lt;br/&gt;- lastName: String&lt;br/&gt;- timestamp: LocalDateTime&lt;br/&gt;- gender: Gender&lt;br/&gt;- passportDateOfIssue: LocalDate&lt;br/&gt;- passportNumber: String&lt;br/&gt;- placeOfBirth: String&lt;br/&gt;- countryOfCitizenship: String&lt;br/&gt;- birthDate: LocalDate&lt;/p&gt;&lt;hr size=&quot;1&quot;/&gt;&lt;p style=&quot;margin:0 0 0 4px;line-height:1.6;&quot;&gt;+ getFirstName(): String&lt;br/&gt;+ getPassportDateOfExpiry(): LocalDate&lt;br/&gt;+ setPassportDateOfIssue(LocalDate): void&lt;br/&gt;+ toString(): String&lt;br/&gt;+ getPassportNumber(): String&lt;br/&gt;+ setTimestamp(LocalDateTime): void&lt;br/&gt;+ getId(): Long&lt;br/&gt;+ getTimestamp(): LocalDateTime&lt;br/&gt;+ setFirstName(String): void&lt;br/&gt;+ setBirthDate(LocalDate): void&lt;br/&gt;+ getPassportDateOfIssue(): LocalDate&lt;br/&gt;+ builder(): PassportValidationDataBuilder&lt;br/&gt;+ equals(Object): boolean&lt;br/&gt;+ hashCode(): int&lt;br/&gt;# canEqual(Object): boolean&lt;br/&gt;+ setId(Long): void&lt;br/&gt;+ getLastName(): String&lt;br/&gt;+ getBirthDate(): LocalDate&lt;br/&gt;+ getPlaceOfBirth(): String&lt;br/&gt;+ setGender(Gender): void&lt;br/&gt;+ getCountryOfCitizenship(): String&lt;br/&gt;+ setPassportDateOfExpiry(LocalDate): void&lt;br/&gt;+ setLastName(String): void&lt;br/&gt;+ setPlaceOfBirth(String): void&lt;br/&gt;+ getGender(): Gender&lt;br/&gt;+ setPassportNumber(String): void&lt;br/&gt;+ setCountryOfCitizenship(String): void&lt;br/&gt;+ getStudentDtoFromValidationData(PassportValidationData): StudentDto&lt;br/&gt;+ createPassportValidationDataForStudent(StudentDto): PassportValidationData&lt;/p&gt;" style="verticalAlign=top;align=left;overflow=fill;fontSize=14;fontFamily=Helvetica;html=1;rounded=0;shadow=0;comic=0;labelBackgroundColor=none;strokeWidth=1;">
      <mxGeometry x="-193" y="-14" width="533" height="1057" as="geometry" />
    </mxCell>
    <mxCell id="node80" parent="1" vertex="1" value="&lt;p style=&quot;margin:0px;margin-top:4px;text-align:center;&quot;&gt;&lt;b&gt;PassportValidationDataNotFoundException&lt;/b&gt;&lt;/p&gt;&lt;hr size=&quot;1&quot;/&gt;&lt;p style=&quot;margin:0 0 0 4px;line-height:1.6;&quot;&gt;+ PassportValidationDataNotFoundException(String): &lt;/p&gt;" style="verticalAlign=top;align=left;overflow=fill;fontSize=14;fontFamily=Helvetica;html=1;rounded=0;shadow=0;comic=0;labelBackgroundColor=none;strokeWidth=1;">
      <mxGeometry x="1282" y="3719" width="388" height="68" as="geometry" />
    </mxCell>
    <mxCell id="node37" parent="1" vertex="1" value="&lt;p style=&quot;margin:0px;margin-top:4px;text-align:center;&quot;&gt;&lt;i&gt;&amp;lt;&amp;lt;interface&amp;gt;&amp;gt;&lt;/i&gt;&lt;br/&gt;&lt;b&gt;PassportValidationDataRepository&lt;/b&gt;&lt;/p&gt;&lt;hr size=&quot;1&quot;/&gt;&lt;p style=&quot;margin:0 0 0 4px;line-height:1.6;&quot;&gt;+ getPassportValidationDataByPassportNumber(String): Optional&amp;lt;PassportValidationData&amp;gt;&lt;br/&gt;+ deletePassportValidationDataByPassportNumber(String): void&lt;/p&gt;" style="verticalAlign=top;align=left;overflow=fill;fontSize=14;fontFamily=Helvetica;html=1;rounded=0;shadow=0;comic=0;labelBackgroundColor=none;strokeWidth=1;">
      <mxGeometry x="2242" y="3558" width="598" height="109" as="geometry" />
    </mxCell>
    <mxCell id="node27" parent="1" vertex="1" value="&lt;p style=&quot;margin:0px;margin-top:4px;text-align:center;&quot;&gt;&lt;b&gt;PassportValidationResponse&lt;/b&gt;&lt;/p&gt;&lt;hr size=&quot;1&quot;/&gt;&lt;p style=&quot;margin:0 0 0 4px;line-height:1.6;&quot;&gt;+ PassportValidationResponse(Boolean, StudentDto): &lt;/p&gt;&lt;hr size=&quot;1&quot;/&gt;&lt;p style=&quot;margin:0 0 0 4px;line-height:1.6;&quot;&gt;- studentDto: StudentDto&lt;br/&gt;- isValid: Boolean&lt;/p&gt;&lt;hr size=&quot;1&quot;/&gt;&lt;p style=&quot;margin:0 0 0 4px;line-height:1.6;&quot;&gt;+ getIsValid(): Boolean&lt;br/&gt;+ getStudentDto(): StudentDto&lt;br/&gt;+ setIsValid(Boolean): void&lt;br/&gt;+ setStudentDto(StudentDto): void&lt;br/&gt;+ equals(Object): boolean&lt;br/&gt;# canEqual(Object): boolean&lt;br/&gt;+ hashCode(): int&lt;br/&gt;+ toString(): String&lt;br/&gt;+ builder(): PassportValidationResponseBuilder&lt;/p&gt;" style="verticalAlign=top;align=left;overflow=fill;fontSize=14;fontFamily=Helvetica;html=1;rounded=0;shadow=0;comic=0;labelBackgroundColor=none;strokeWidth=1;">
      <mxGeometry x="1526" y="2318" width="370" height="337" as="geometry" />
    </mxCell>
    <mxCell id="node58" parent="1" vertex="1" value="&lt;p style=&quot;margin:0px;margin-top:4px;text-align:center;&quot;&gt;&lt;i&gt;&amp;lt;&amp;lt;interface&amp;gt;&amp;gt;&lt;/i&gt;&lt;br/&gt;&lt;b&gt;PassportValidationService&lt;/b&gt;&lt;/p&gt;&lt;hr size=&quot;1&quot;/&gt;&lt;p style=&quot;margin:0 0 0 4px;line-height:1.6;&quot;&gt;+ getAllPassportValidationData(Integer, Integer): Page&amp;lt;PassportValidationData&amp;gt;&lt;br/&gt;+ deletePassportValidationData(String): String&lt;br/&gt;+ getPassportValidationDataByPassportNumber(String): Optional&amp;lt;PassportValidationData&amp;gt;&lt;br/&gt;+ createPassportValidationData(PassportValidationData): PassportValidationData&lt;br/&gt;+ getStudentFromPassportValidation(String): StudentDto&lt;/p&gt;" style="verticalAlign=top;align=left;overflow=fill;fontSize=14;fontFamily=Helvetica;html=1;rounded=0;shadow=0;comic=0;labelBackgroundColor=none;strokeWidth=1;">
      <mxGeometry x="1177" y="1775" width="598" height="159" as="geometry" />
    </mxCell>
    <mxCell id="node29" parent="1" vertex="1" value="&lt;p style=&quot;margin:0px;margin-top:4px;text-align:center;&quot;&gt;&lt;b&gt;PassportValidationServiceImpl&lt;/b&gt;&lt;/p&gt;&lt;hr size=&quot;1&quot;/&gt;&lt;p style=&quot;margin:0 0 0 4px;line-height:1.6;&quot;&gt;+ PassportValidationServiceImpl(PassportValidationDataRepository): &lt;/p&gt;&lt;hr size=&quot;1&quot;/&gt;&lt;p style=&quot;margin:0 0 0 4px;line-height:1.6;&quot;&gt;- passportValidationDataRepository: PassportValidationDataRepository&lt;br/&gt;- log: Logger&lt;/p&gt;&lt;hr size=&quot;1&quot;/&gt;&lt;p style=&quot;margin:0 0 0 4px;line-height:1.6;&quot;&gt;+ deletePassportValidationData(String): String&lt;br/&gt;+ getAllPassportValidationData(Integer, Integer): Page&amp;lt;PassportValidationData&amp;gt;&lt;br/&gt;+ getPassportValidationDataByPassportNumber(String): Optional&amp;lt;PassportValidationData&amp;gt;&lt;br/&gt;+ createPassportValidationData(PassportValidationData): PassportValidationData&lt;br/&gt;+ getStudentFromPassportValidation(String): StudentDto&lt;/p&gt;" style="verticalAlign=top;align=left;overflow=fill;fontSize=14;fontFamily=Helvetica;html=1;rounded=0;shadow=0;comic=0;labelBackgroundColor=none;strokeWidth=1;">
      <mxGeometry x="1177" y="1984" width="598" height="241" as="geometry" />
    </mxCell>
    <mxCell id="node50" parent="1" vertex="1" value="&lt;p style=&quot;margin:0px;margin-top:4px;text-align:center;&quot;&gt;&lt;b&gt;Report&lt;/b&gt;&lt;/p&gt;&lt;hr size=&quot;1&quot;/&gt;&lt;p style=&quot;margin:0 0 0 4px;line-height:1.6;&quot;&gt;+ Report(): &lt;br/&gt;+ Report(Long, String, String, String, LocalDateTime): &lt;/p&gt;&lt;hr size=&quot;1&quot;/&gt;&lt;p style=&quot;margin:0 0 0 4px;line-height:1.6;&quot;&gt;- subject: String&lt;br/&gt;- timestamp: LocalDateTime&lt;br/&gt;- issuerUsername: String&lt;br/&gt;~ MAX_DESCRIPTION_LENGTH_IN_CHARACTERS: int&lt;br/&gt;- description: String&lt;br/&gt;- id: Long&lt;/p&gt;&lt;hr size=&quot;1&quot;/&gt;&lt;p style=&quot;margin:0 0 0 4px;line-height:1.6;&quot;&gt;+ getId(): Long&lt;br/&gt;+ getIssuerUsername(): String&lt;br/&gt;+ setDescription(String): void&lt;br/&gt;+ builder(): ReportBuilder&lt;br/&gt;+ setTimestamp(LocalDateTime): void&lt;br/&gt;# canEqual(Object): boolean&lt;br/&gt;+ getSubject(): String&lt;br/&gt;+ getDescription(): String&lt;br/&gt;+ getTimestamp(): LocalDateTime&lt;br/&gt;+ setId(Long): void&lt;br/&gt;+ setIssuerUsername(String): void&lt;br/&gt;+ equals(Object): boolean&lt;br/&gt;+ setSubject(String): void&lt;br/&gt;+ toString(): String&lt;br/&gt;+ hashCode(): int&lt;br/&gt;# prePersist(): void&lt;/p&gt;" style="verticalAlign=top;align=left;overflow=fill;fontSize=14;fontFamily=Helvetica;html=1;rounded=0;shadow=0;comic=0;labelBackgroundColor=none;strokeWidth=1;">
      <mxGeometry x="304" y="1088" width="369" height="625" as="geometry" />
    </mxCell>
    <mxCell id="node36" parent="1" vertex="1" value="&lt;p style=&quot;margin:0px;margin-top:4px;text-align:center;&quot;&gt;&lt;b&gt;ReportMessage&lt;/b&gt;&lt;/p&gt;&lt;hr size=&quot;1&quot;/&gt;&lt;p style=&quot;margin:0 0 0 4px;line-height:1.6;&quot;&gt;+ ReportMessage(String, String, String): &lt;br/&gt;+ ReportMessage(): &lt;/p&gt;&lt;hr size=&quot;1&quot;/&gt;&lt;p style=&quot;margin:0 0 0 4px;line-height:1.6;&quot;&gt;- description: String&lt;br/&gt;- username: String&lt;br/&gt;- subject: String&lt;/p&gt;&lt;hr size=&quot;1&quot;/&gt;&lt;p style=&quot;margin:0 0 0 4px;line-height:1.6;&quot;&gt;+ getUsername(): String&lt;br/&gt;+ toString(): String&lt;br/&gt;+ getSubject(): String&lt;br/&gt;+ getDescription(): String&lt;br/&gt;+ setUsername(String): void&lt;br/&gt;+ setSubject(String): void&lt;br/&gt;+ setDescription(String): void&lt;br/&gt;+ equals(Object): boolean&lt;br/&gt;# canEqual(Object): boolean&lt;br/&gt;+ hashCode(): int&lt;/p&gt;" style="verticalAlign=top;align=left;overflow=fill;fontSize=14;fontFamily=Helvetica;html=1;rounded=0;shadow=0;comic=0;labelBackgroundColor=none;strokeWidth=1;">
      <mxGeometry x="2749" y="1775" width="288" height="409" as="geometry" />
    </mxCell>
    <mxCell id="node11" parent="1" vertex="1" value="&lt;p style=&quot;margin:0px;margin-top:4px;text-align:center;&quot;&gt;&lt;b&gt;ReportNotFoundException&lt;/b&gt;&lt;/p&gt;&lt;hr size=&quot;1&quot;/&gt;&lt;p style=&quot;margin:0 0 0 4px;line-height:1.6;&quot;&gt;+ ReportNotFoundException(String): &lt;/p&gt;" style="verticalAlign=top;align=left;overflow=fill;fontSize=14;fontFamily=Helvetica;html=1;rounded=0;shadow=0;comic=0;labelBackgroundColor=none;strokeWidth=1;">
      <mxGeometry x="120" y="3851" width="266" height="68" as="geometry" />
    </mxCell>
    <mxCell id="node49" parent="1" vertex="1" value="&lt;p style=&quot;margin:0px;margin-top:4px;text-align:center;&quot;&gt;&lt;i&gt;&amp;lt;&amp;lt;interface&amp;gt;&amp;gt;&lt;/i&gt;&lt;br/&gt;&lt;b&gt;ReportRepository&lt;/b&gt;&lt;/p&gt;&lt;hr size=&quot;1&quot;/&gt;" style="verticalAlign=top;align=left;overflow=fill;fontSize=14;fontFamily=Helvetica;html=1;rounded=0;shadow=0;comic=0;labelBackgroundColor=none;strokeWidth=1;">
      <mxGeometry x="2216" y="3851" width="184" height="35" as="geometry" />
    </mxCell>
    <mxCell id="node70" parent="1" vertex="1" value="&lt;p style=&quot;margin:0px;margin-top:4px;text-align:center;&quot;&gt;&lt;i&gt;&amp;lt;&amp;lt;interface&amp;gt;&amp;gt;&lt;/i&gt;&lt;br/&gt;&lt;b&gt;ReportService&lt;/b&gt;&lt;/p&gt;&lt;hr size=&quot;1&quot;/&gt;&lt;p style=&quot;margin:0 0 0 4px;line-height:1.6;&quot;&gt;+ sendReport(ReportMessage): String&lt;br/&gt;+ getAllReports(Integer, Integer): Page&amp;lt;Report&amp;gt;&lt;br/&gt;+ deleteReport(Long): void&lt;/p&gt;" style="verticalAlign=top;align=left;overflow=fill;fontSize=14;fontFamily=Helvetica;html=1;rounded=0;shadow=0;comic=0;labelBackgroundColor=none;strokeWidth=1;">
      <mxGeometry x="75" y="2318" width="336" height="139" as="geometry" />
    </mxCell>
    <mxCell id="node47" parent="1" vertex="1" value="&lt;p style=&quot;margin:0px;margin-top:4px;text-align:center;&quot;&gt;&lt;b&gt;ReportServiceImpl&lt;/b&gt;&lt;/p&gt;&lt;hr size=&quot;1&quot;/&gt;&lt;p style=&quot;margin:0 0 0 4px;line-height:1.6;&quot;&gt;+ ReportServiceImpl(ReportRepository, MailService): &lt;/p&gt;&lt;hr size=&quot;1&quot;/&gt;&lt;p style=&quot;margin:0 0 0 4px;line-height:1.6;&quot;&gt;- log: Logger&lt;br/&gt;- mailService: MailService&lt;br/&gt;- repository: ReportRepository&lt;/p&gt;&lt;hr size=&quot;1&quot;/&gt;&lt;p style=&quot;margin:0 0 0 4px;line-height:1.6;&quot;&gt;+ getAllReports(Integer, Integer): Page&amp;lt;Report&amp;gt;&lt;br/&gt;+ deleteReport(Long): void&lt;br/&gt;+ sendReport(ReportMessage): String&lt;/p&gt;" style="verticalAlign=top;align=left;overflow=fill;fontSize=14;fontFamily=Helvetica;html=1;rounded=0;shadow=0;comic=0;labelBackgroundColor=none;strokeWidth=1;">
      <mxGeometry x="61" y="2479" width="363" height="217" as="geometry" />
    </mxCell>
    <mxCell id="node76" parent="1" vertex="1" value="&lt;p style=&quot;margin:0px;margin-top:4px;text-align:center;&quot;&gt;&lt;b&gt;ReportingController&lt;/b&gt;&lt;/p&gt;&lt;hr size=&quot;1&quot;/&gt;&lt;p style=&quot;margin:0 0 0 4px;line-height:1.6;&quot;&gt;+ ReportingController(ReportService): &lt;/p&gt;&lt;hr size=&quot;1&quot;/&gt;&lt;p style=&quot;margin:0 0 0 4px;line-height:1.6;&quot;&gt;- reportService: ReportService&lt;/p&gt;&lt;hr size=&quot;1&quot;/&gt;&lt;p style=&quot;margin:0 0 0 4px;line-height:1.6;&quot;&gt;+ getReports(Integer, Integer): Page&amp;lt;Report&amp;gt;&lt;br/&gt;+ deleteReport(Long): ResponseEntity&amp;lt;String&amp;gt;&lt;br/&gt;+ sendReport(ReportMessage): ResponseEntity&amp;lt;String&amp;gt;&lt;/p&gt;" style="verticalAlign=top;align=left;overflow=fill;fontSize=14;fontFamily=Helvetica;html=1;rounded=0;shadow=0;comic=0;labelBackgroundColor=none;strokeWidth=1;">
      <mxGeometry x="1983" y="3106" width="387" height="169" as="geometry" />
    </mxCell>
    <mxCell id="node39" parent="1" vertex="1" value="&lt;p style=&quot;margin:0px;margin-top:4px;text-align:center;&quot;&gt;&lt;i&gt;&amp;lt;&amp;lt;enumeration&amp;gt;&amp;gt;&lt;/i&gt;&lt;br/&gt;&lt;b&gt;Role&lt;/b&gt;&lt;/p&gt;&lt;hr size=&quot;1&quot;/&gt;&lt;p style=&quot;margin:0 0 0 4px;line-height:1.6;&quot;&gt;+ Role(): &lt;/p&gt;&lt;hr size=&quot;1&quot;/&gt;&lt;p style=&quot;margin:0 0 0 4px;line-height:1.6;&quot;&gt;+ USER: &lt;br/&gt;+ ADMIN: &lt;/p&gt;&lt;hr size=&quot;1&quot;/&gt;&lt;p style=&quot;margin:0 0 0 4px;line-height:1.6;&quot;&gt;+ valueOf(String): Role&lt;br/&gt;+ values(): Role[]&lt;/p&gt;" style="verticalAlign=top;align=left;overflow=fill;fontSize=14;fontFamily=Helvetica;html=1;rounded=0;shadow=0;comic=0;labelBackgroundColor=none;strokeWidth=1;">
      <mxGeometry x="3033" y="3106" width="174" height="169" as="geometry" />
    </mxCell>
    <mxCell id="node73" parent="1" vertex="1" value="&lt;p style=&quot;margin:0px;margin-top:4px;text-align:center;&quot;&gt;&lt;b&gt;SecurityConfiguration&lt;/b&gt;&lt;/p&gt;&lt;hr size=&quot;1&quot;/&gt;&lt;p style=&quot;margin:0 0 0 4px;line-height:1.6;&quot;&gt;+ SecurityConfiguration(AppUserDetailsService, AppAccessDeniedHandler, AppAuthenticationEntryPoint, ApplicationContext): &lt;/p&gt;&lt;hr size=&quot;1&quot;/&gt;&lt;p style=&quot;margin:0 0 0 4px;line-height:1.6;&quot;&gt;~ BASE_AUTH_URL: String&lt;br/&gt;- applicationContext: ApplicationContext&lt;br/&gt;- appUserDetailsService: AppUserDetailsService&lt;br/&gt;- appAccessDeniedHandler: AppAccessDeniedHandler&lt;br/&gt;- entryPoint: AppAuthenticationEntryPoint&lt;br/&gt;- frontendUrl: String&lt;/p&gt;&lt;hr size=&quot;1&quot;/&gt;&lt;p style=&quot;margin:0 0 0 4px;line-height:1.6;&quot;&gt;+ securityFilterChain(HttpSecurity): SecurityFilterChain&lt;br/&gt;+ authenticationManager(): AuthenticationManager&lt;br/&gt;+ userDetailsService(): UserDetailsService&lt;br/&gt;+ authenticationProvider(): AuthenticationProvider&lt;br/&gt;+ passwordEncoder(): PasswordEncoder&lt;br/&gt;+ corsConfigurationSource(): CorsConfigurationSource&lt;/p&gt;" style="verticalAlign=top;align=left;overflow=fill;fontSize=14;fontFamily=Helvetica;html=1;rounded=0;shadow=0;comic=0;labelBackgroundColor=none;strokeWidth=1;">
      <mxGeometry x="1055" y="2318" width="426" height="361" as="geometry" />
    </mxCell>
    <mxCell id="node53" parent="1" vertex="1" value="&lt;p style=&quot;margin:0px;margin-top:4px;text-align:center;&quot;&gt;&lt;b&gt;Student&lt;/b&gt;&lt;/p&gt;&lt;hr size=&quot;1&quot;/&gt;&lt;p style=&quot;margin:0 0 0 4px;line-height:1.6;&quot;&gt;+ Student(): &lt;br/&gt;+ Student(Long, String, String, LocalDate, String, String, Gender, String, LocalDate, LocalDate, boolean): &lt;/p&gt;&lt;hr size=&quot;1&quot;/&gt;&lt;p style=&quot;margin:0 0 0 4px;line-height:1.6;&quot;&gt;- id: Long&lt;br/&gt;- passportNumber: String&lt;br/&gt;- passportDateOfExpiry: LocalDate&lt;br/&gt;- passportDateOfIssue: LocalDate&lt;br/&gt;- countryOfCitizenship: String&lt;br/&gt;- gender: Gender&lt;br/&gt;- valid: boolean&lt;br/&gt;- firstName: String&lt;br/&gt;- lastName: String&lt;br/&gt;- birthDate: LocalDate&lt;br/&gt;- placeOfBirth: String&lt;/p&gt;&lt;hr size=&quot;1&quot;/&gt;&lt;p style=&quot;margin:0 0 0 4px;line-height:1.6;&quot;&gt;+ setId(Long): void&lt;br/&gt;+ setPlaceOfBirth(String): void&lt;br/&gt;+ builder(): StudentBuilder&lt;br/&gt;+ equals(Object): boolean&lt;br/&gt;+ getId(): Long&lt;br/&gt;+ getFirstName(): String&lt;br/&gt;+ toString(): String&lt;br/&gt;+ setValid(boolean): void&lt;br/&gt;+ isValid(): boolean&lt;br/&gt;+ setPassportDateOfExpiry(LocalDate): void&lt;br/&gt;+ setPassportDateOfIssue(LocalDate): void&lt;br/&gt;+ setLastName(String): void&lt;br/&gt;+ getLastName(): String&lt;br/&gt;+ getBirthDate(): LocalDate&lt;br/&gt;+ getPlaceOfBirth(): String&lt;br/&gt;+ getCountryOfCitizenship(): String&lt;br/&gt;+ getPassportDateOfExpiry(): LocalDate&lt;br/&gt;+ getGender(): Gender&lt;br/&gt;+ setPassportNumber(String): void&lt;br/&gt;+ hashCode(): int&lt;br/&gt;+ setFirstName(String): void&lt;br/&gt;# canEqual(Object): boolean&lt;br/&gt;+ getPassportNumber(): String&lt;br/&gt;+ getPassportDateOfIssue(): LocalDate&lt;br/&gt;+ setCountryOfCitizenship(String): void&lt;br/&gt;+ setGender(Gender): void&lt;br/&gt;+ setBirthDate(LocalDate): void&lt;/p&gt;" style="verticalAlign=top;align=left;overflow=fill;fontSize=14;fontFamily=Helvetica;html=1;rounded=0;shadow=0;comic=0;labelBackgroundColor=none;strokeWidth=1;">
      <mxGeometry x="825" y="-14" width="402" height="1009" as="geometry" />
    </mxCell>
    <mxCell id="node33" parent="1" vertex="1" value="&lt;p style=&quot;margin:0px;margin-top:4px;text-align:center;&quot;&gt;&lt;b&gt;StudentAppUser&lt;/b&gt;&lt;/p&gt;&lt;hr size=&quot;1&quot;/&gt;&lt;p style=&quot;margin:0 0 0 4px;line-height:1.6;&quot;&gt;+ StudentAppUser(): &lt;/p&gt;&lt;hr size=&quot;1&quot;/&gt;&lt;p style=&quot;margin:0 0 0 4px;line-height:1.6;&quot;&gt;- id: Long&lt;br/&gt;- username: String&lt;br/&gt;- studentId: Long&lt;/p&gt;&lt;hr size=&quot;1&quot;/&gt;&lt;p style=&quot;margin:0 0 0 4px;line-height:1.6;&quot;&gt;+ getStudentId(): Long&lt;br/&gt;+ getId(): Long&lt;br/&gt;+ getUsername(): String&lt;br/&gt;+ setId(Long): void&lt;br/&gt;+ setUsername(String): void&lt;br/&gt;+ setStudentId(Long): void&lt;br/&gt;+ equals(Object): boolean&lt;br/&gt;# canEqual(Object): boolean&lt;br/&gt;+ hashCode(): int&lt;br/&gt;+ toString(): String&lt;/p&gt;" style="verticalAlign=top;align=left;overflow=fill;fontSize=14;fontFamily=Helvetica;html=1;rounded=0;shadow=0;comic=0;labelBackgroundColor=none;strokeWidth=1;">
      <mxGeometry x="-193" y="2318" width="209" height="385" as="geometry" />
    </mxCell>
    <mxCell id="node20" parent="1" vertex="1" value="&lt;p style=&quot;margin:0px;margin-top:4px;text-align:center;&quot;&gt;&lt;b&gt;StudentAppUserController&lt;/b&gt;&lt;/p&gt;&lt;hr size=&quot;1&quot;/&gt;&lt;p style=&quot;margin:0 0 0 4px;line-height:1.6;&quot;&gt;+ StudentAppUserController(StudentAppUserRepository): &lt;/p&gt;&lt;hr size=&quot;1&quot;/&gt;&lt;p style=&quot;margin:0 0 0 4px;line-height:1.6;&quot;&gt;- repository: StudentAppUserRepository&lt;/p&gt;&lt;hr size=&quot;1&quot;/&gt;&lt;p style=&quot;margin:0 0 0 4px;line-height:1.6;&quot;&gt;+ getStudentIdByUsername(String): ResponseEntity&amp;lt;Long&amp;gt;&lt;/p&gt;" style="verticalAlign=top;align=left;overflow=fill;fontSize=14;fontFamily=Helvetica;html=1;rounded=0;shadow=0;comic=0;labelBackgroundColor=none;strokeWidth=1;">
      <mxGeometry x="2230" y="3368" width="407" height="131" as="geometry" />
    </mxCell>
    <mxCell id="node1" parent="1" vertex="1" value="&lt;p style=&quot;margin:0px;margin-top:4px;text-align:center;&quot;&gt;&lt;i&gt;&amp;lt;&amp;lt;interface&amp;gt;&amp;gt;&lt;/i&gt;&lt;br/&gt;&lt;b&gt;StudentAppUserRepository&lt;/b&gt;&lt;/p&gt;&lt;hr size=&quot;1&quot;/&gt;&lt;p style=&quot;margin:0 0 0 4px;line-height:1.6;&quot;&gt;+ deleteByStudentId(Long): void&lt;br/&gt;+ findByUsername(String): Optional&amp;lt;StudentAppUser&amp;gt;&lt;/p&gt;" style="verticalAlign=top;align=left;overflow=fill;fontSize=14;fontFamily=Helvetica;html=1;rounded=0;shadow=0;comic=0;labelBackgroundColor=none;strokeWidth=1;">
      <mxGeometry x="860" y="3719" width="377" height="109" as="geometry" />
    </mxCell>
    <mxCell id="node12" parent="1" vertex="1" value="&lt;p style=&quot;margin:0px;margin-top:4px;text-align:center;&quot;&gt;&lt;b&gt;StudentController&lt;/b&gt;&lt;/p&gt;&lt;hr size=&quot;1&quot;/&gt;&lt;p style=&quot;margin:0 0 0 4px;line-height:1.6;&quot;&gt;+ StudentController(StudentService, FormRecognizerService, FileUploadService, FacialValidationService): &lt;/p&gt;&lt;hr size=&quot;1&quot;/&gt;&lt;p style=&quot;margin:0 0 0 4px;line-height:1.6;&quot;&gt;- studentService: StudentService&lt;br/&gt;- fileUploadService: FileUploadService&lt;br/&gt;- facialValidationService: FacialValidationService&lt;br/&gt;- formRecognizerService: FormRecognizerService&lt;/p&gt;&lt;hr size=&quot;1&quot;/&gt;&lt;p style=&quot;margin:0 0 0 4px;line-height:1.6;&quot;&gt;+ getStudentById(Long): ResponseEntity&amp;lt;StudentDto&amp;gt;&lt;br/&gt;+ getAllStudents(Integer, Integer): Page&amp;lt;StudentDto&amp;gt;&lt;br/&gt;+ deleteStudentById(Long): ResponseEntity&amp;lt;StudentDto&amp;gt;&lt;br/&gt;+ updateStudentById(StudentDto, Long): ResponseEntity&amp;lt;StudentDto&amp;gt;&lt;br/&gt;+ createStudent(StudentDto, String, String): ResponseEntity&amp;lt;StudentDto&amp;gt;&lt;/p&gt;" style="verticalAlign=top;align=left;overflow=fill;fontSize=14;fontFamily=Helvetica;html=1;rounded=0;shadow=0;comic=0;labelBackgroundColor=none;strokeWidth=1;">
      <mxGeometry x="756" y="2748" width="502" height="289" as="geometry" />
    </mxCell>
    <mxCell id="node56" parent="1" vertex="1" value="&lt;p style=&quot;margin:0px;margin-top:4px;text-align:center;&quot;&gt;&lt;b&gt;StudentDto&lt;/b&gt;&lt;/p&gt;&lt;hr size=&quot;1&quot;/&gt;&lt;p style=&quot;margin:0 0 0 4px;line-height:1.6;&quot;&gt;+ StudentDto(Long, String, String, String, String, String, Gender, String, String, String, boolean): &lt;br/&gt;+ StudentDto(): &lt;/p&gt;&lt;hr size=&quot;1&quot;/&gt;&lt;p style=&quot;margin:0 0 0 4px;line-height:1.6;&quot;&gt;- countryOfCitizenship: String&lt;br/&gt;- lastName: String&lt;br/&gt;- firstName: String&lt;br/&gt;- placeOfBirth: String&lt;br/&gt;- MULTIPLIER_NON_ZERO_ODD_NUMBER: int&lt;br/&gt;- passportDateOfIssue: String&lt;br/&gt;- birthDate: String&lt;br/&gt;- passportDateOfExpiry: String&lt;br/&gt;- id: Long&lt;br/&gt;- gender: Gender&lt;br/&gt;- passportNumber: String&lt;br/&gt;- INITIAL_NON_ZERO_ODD_NUMBER: int&lt;br/&gt;- valid: boolean&lt;/p&gt;&lt;hr size=&quot;1&quot;/&gt;&lt;p style=&quot;margin:0 0 0 4px;line-height:1.6;&quot;&gt;+ getId(): Long&lt;br/&gt;+ getFirstName(): String&lt;br/&gt;+ setValid(boolean): void&lt;br/&gt;+ setLastName(String): void&lt;br/&gt;+ getPassportDateOfExpiry(): String&lt;br/&gt;+ isValid(): boolean&lt;br/&gt;+ toString(): String&lt;br/&gt;+ setPassportDateOfIssue(String): void&lt;br/&gt;+ setId(Long): void&lt;br/&gt;+ setCountryOfCitizenship(String): void&lt;br/&gt;+ setGender(Gender): void&lt;br/&gt;+ builder(): StudentDtoBuilder&lt;br/&gt;+ getLastName(): String&lt;br/&gt;+ setPlaceOfBirth(String): void&lt;br/&gt;+ getPassportDateOfIssue(): String&lt;br/&gt;+ getBirthDate(): String&lt;br/&gt;+ getPlaceOfBirth(): String&lt;br/&gt;+ setFirstName(String): void&lt;br/&gt;+ setPassportDateOfExpiry(String): void&lt;br/&gt;+ getCountryOfCitizenship(): String&lt;br/&gt;+ getGender(): Gender&lt;br/&gt;+ setPassportNumber(String): void&lt;br/&gt;+ getPassportNumber(): String&lt;br/&gt;+ setBirthDate(String): void&lt;br/&gt;+ equals(Object): boolean&lt;br/&gt;+ hashCode(): int&lt;/p&gt;" style="verticalAlign=top;align=left;overflow=fill;fontSize=14;fontFamily=Helvetica;html=1;rounded=0;shadow=0;comic=0;labelBackgroundColor=none;strokeWidth=1;">
      <mxGeometry x="385" y="-14" width="395" height="1033" as="geometry" />
    </mxCell>
    <mxCell id="node28" parent="1" vertex="1" value="&lt;p style=&quot;margin:0px;margin-top:4px;text-align:center;&quot;&gt;&lt;b&gt;StudentImage&lt;/b&gt;&lt;/p&gt;&lt;hr size=&quot;1&quot;/&gt;&lt;p style=&quot;margin:0 0 0 4px;line-height:1.6;&quot;&gt;+ StudentImage(Long, byte[], byte[]): &lt;br/&gt;+ StudentImage(): &lt;/p&gt;&lt;hr size=&quot;1&quot;/&gt;&lt;p style=&quot;margin:0 0 0 4px;line-height:1.6;&quot;&gt;- passportImage: byte[]&lt;br/&gt;- studentId: Long&lt;br/&gt;- selfieImage: byte[]&lt;/p&gt;&lt;hr size=&quot;1&quot;/&gt;&lt;p style=&quot;margin:0 0 0 4px;line-height:1.6;&quot;&gt;+ setSelfieImage(byte[]): void&lt;br/&gt;+ getStudentId(): Long&lt;br/&gt;+ getPassportImage(): byte[]&lt;br/&gt;+ getSelfieImage(): byte[]&lt;br/&gt;+ setStudentId(Long): void&lt;br/&gt;+ setPassportImage(byte[]): void&lt;br/&gt;+ builder(): StudentImageBuilder&lt;br/&gt;+ equals(Object): boolean&lt;br/&gt;+ toString(): String&lt;br/&gt;# canEqual(Object): boolean&lt;br/&gt;+ hashCode(): int&lt;/p&gt;" style="verticalAlign=top;align=left;overflow=fill;fontSize=14;fontFamily=Helvetica;html=1;rounded=0;shadow=0;comic=0;labelBackgroundColor=none;strokeWidth=1;">
      <mxGeometry x="1820" y="1775" width="272" height="433" as="geometry" />
    </mxCell>
    <mxCell id="node82" parent="1" vertex="1" value="&lt;p style=&quot;margin:0px;margin-top:4px;text-align:center;&quot;&gt;&lt;i&gt;&amp;lt;&amp;lt;interface&amp;gt;&amp;gt;&lt;/i&gt;&lt;br/&gt;&lt;b&gt;StudentImageRepository&lt;/b&gt;&lt;/p&gt;&lt;hr size=&quot;1&quot;/&gt;&lt;p style=&quot;margin:0 0 0 4px;line-height:1.6;&quot;&gt;+ deleteStudentImageByStudentId(Long): void&lt;/p&gt;" style="verticalAlign=top;align=left;overflow=fill;fontSize=14;fontFamily=Helvetica;html=1;rounded=0;shadow=0;comic=0;labelBackgroundColor=none;strokeWidth=1;">
      <mxGeometry x="2116" y="3719" width="322" height="79" as="geometry" />
    </mxCell>
    <mxCell id="node23" parent="1" vertex="1" value="&lt;p style=&quot;margin:0px;margin-top:4px;text-align:center;&quot;&gt;&lt;i&gt;&amp;lt;&amp;lt;enumeration&amp;gt;&amp;gt;&lt;/i&gt;&lt;br/&gt;&lt;b&gt;StudentImageType&lt;/b&gt;&lt;/p&gt;&lt;hr size=&quot;1&quot;/&gt;&lt;p style=&quot;margin:0 0 0 4px;line-height:1.6;&quot;&gt;+ StudentImageType(): &lt;/p&gt;&lt;hr size=&quot;1&quot;/&gt;&lt;p style=&quot;margin:0 0 0 4px;line-height:1.6;&quot;&gt;+ OTHER: &lt;br/&gt;+ PASSPORT: &lt;br/&gt;+ SELFIE: &lt;/p&gt;&lt;hr size=&quot;1&quot;/&gt;&lt;p style=&quot;margin:0 0 0 4px;line-height:1.6;&quot;&gt;+ valueOf(String): StudentImageType&lt;br/&gt;+ values(): StudentImageType[]&lt;/p&gt;" style="verticalAlign=top;align=left;overflow=fill;fontSize=14;fontFamily=Helvetica;html=1;rounded=0;shadow=0;comic=0;labelBackgroundColor=none;strokeWidth=1;">
      <mxGeometry x="741" y="3106" width="265" height="193" as="geometry" />
    </mxCell>
    <mxCell id="node42" parent="1" vertex="1" value="&lt;p style=&quot;margin:0px;margin-top:4px;text-align:center;&quot;&gt;&lt;b&gt;StudentManagerApplication&lt;/b&gt;&lt;/p&gt;&lt;hr size=&quot;1&quot;/&gt;&lt;p style=&quot;margin:0 0 0 4px;line-height:1.6;&quot;&gt;+ StudentManagerApplication(): &lt;/p&gt;&lt;hr size=&quot;1&quot;/&gt;&lt;p style=&quot;margin:0 0 0 4px;line-height:1.6;&quot;&gt;+ main(String[]): void&lt;/p&gt;" style="verticalAlign=top;align=left;overflow=fill;fontSize=14;fontFamily=Helvetica;html=1;rounded=0;shadow=0;comic=0;labelBackgroundColor=none;strokeWidth=1;">
      <mxGeometry x="1719" y="3558" width="266" height="99" as="geometry" />
    </mxCell>
    <mxCell id="node40" parent="1" vertex="1" value="&lt;p style=&quot;margin:0px;margin-top:4px;text-align:center;&quot;&gt;&lt;b&gt;StudentMapper&lt;/b&gt;&lt;/p&gt;&lt;hr size=&quot;1&quot;/&gt;&lt;p style=&quot;margin:0 0 0 4px;line-height:1.6;&quot;&gt;+ StudentMapper(Gson): &lt;/p&gt;&lt;hr size=&quot;1&quot;/&gt;&lt;p style=&quot;margin:0 0 0 4px;line-height:1.6;&quot;&gt;- gson: Gson&lt;/p&gt;&lt;hr size=&quot;1&quot;/&gt;&lt;p style=&quot;margin:0 0 0 4px;line-height:1.6;&quot;&gt;+ mapJsonToDto(String): StudentDto&lt;br/&gt;+ mapStudentDtoToEntity(StudentDto): Student&lt;br/&gt;+ mapStudentEntityToDto(Student): StudentDto&lt;/p&gt;" style="verticalAlign=top;align=left;overflow=fill;fontSize=14;fontFamily=Helvetica;html=1;rounded=0;shadow=0;comic=0;labelBackgroundColor=none;strokeWidth=1;">
      <mxGeometry x="2415" y="3106" width="334" height="169" as="geometry" />
    </mxCell>
    <mxCell id="node16" parent="1" vertex="1" value="&lt;p style=&quot;margin:0px;margin-top:4px;text-align:center;&quot;&gt;&lt;b&gt;StudentNotFoundException&lt;/b&gt;&lt;/p&gt;&lt;hr size=&quot;1&quot;/&gt;&lt;p style=&quot;margin:0 0 0 4px;line-height:1.6;&quot;&gt;+ StudentNotFoundException(String, OperationType): &lt;/p&gt;&lt;hr size=&quot;1&quot;/&gt;&lt;p style=&quot;margin:0 0 0 4px;line-height:1.6;&quot;&gt;- type: OperationType&lt;/p&gt;&lt;hr size=&quot;1&quot;/&gt;&lt;p style=&quot;margin:0 0 0 4px;line-height:1.6;&quot;&gt;+ getType(): OperationType&lt;br/&gt;+ toString(): String&lt;br/&gt;+ equals(Object): boolean&lt;br/&gt;# canEqual(Object): boolean&lt;br/&gt;+ hashCode(): int&lt;/p&gt;" style="verticalAlign=top;align=left;overflow=fill;fontSize=14;fontFamily=Helvetica;html=1;rounded=0;shadow=0;comic=0;labelBackgroundColor=none;strokeWidth=1;">
      <mxGeometry x="2244" y="2748" width="375" height="217" as="geometry" />
    </mxCell>
    <mxCell id="node68" parent="1" vertex="1" value="&lt;p style=&quot;margin:0px;margin-top:4px;text-align:center;&quot;&gt;&lt;i&gt;&amp;lt;&amp;lt;interface&amp;gt;&amp;gt;&lt;/i&gt;&lt;br/&gt;&lt;b&gt;StudentRepository&lt;/b&gt;&lt;/p&gt;&lt;hr size=&quot;1&quot;/&gt;&lt;p style=&quot;margin:0 0 0 4px;line-height:1.6;&quot;&gt;+ findStudentByPassportNumber(String): Optional&amp;lt;Student&amp;gt;&lt;br/&gt;+ findStudentByFirstNameAndLastName(String, String): Optional&amp;lt;Student&amp;gt;&lt;/p&gt;" style="verticalAlign=top;align=left;overflow=fill;fontSize=14;fontFamily=Helvetica;html=1;rounded=0;shadow=0;comic=0;labelBackgroundColor=none;strokeWidth=1;">
      <mxGeometry x="-193" y="3719" width="504" height="109" as="geometry" />
    </mxCell>
    <mxCell id="node61" parent="1" vertex="1" value="&lt;p style=&quot;margin:0px;margin-top:4px;text-align:center;&quot;&gt;&lt;i&gt;&amp;lt;&amp;lt;interface&amp;gt;&amp;gt;&lt;/i&gt;&lt;br/&gt;&lt;b&gt;StudentService&lt;/b&gt;&lt;/p&gt;&lt;hr size=&quot;1&quot;/&gt;&lt;p style=&quot;margin:0 0 0 4px;line-height:1.6;&quot;&gt;+ validPassportNumber(String): boolean&lt;br/&gt;+ deleteStudentById(Long): StudentDto&lt;br/&gt;+ getStudentById(Long): StudentDto&lt;br/&gt;+ createStudent(StudentDto, String, String): StudentDto&lt;br/&gt;+ getAllStudents(Integer, Integer): Page&amp;lt;StudentDto&amp;gt;&lt;br/&gt;+ setValidity(Long, boolean): String&lt;br/&gt;+ getStudentByUsername(String): Optional&amp;lt;StudentDto&amp;gt;&lt;br/&gt;+ getStudentByFirstAndLastName(String, String): Optional&amp;lt;StudentDto&amp;gt;&lt;br/&gt;+ modifyStudentById(StudentDto, Long): StudentDto&lt;/p&gt;" style="verticalAlign=top;align=left;overflow=fill;fontSize=14;fontFamily=Helvetica;html=1;rounded=0;shadow=0;comic=0;labelBackgroundColor=none;strokeWidth=1;">
      <mxGeometry x="1736" y="-14" width="487" height="255" as="geometry" />
    </mxCell>
    <mxCell id="node26" parent="1" vertex="1" value="&lt;p style=&quot;margin:0px;margin-top:4px;text-align:center;&quot;&gt;&lt;b&gt;StudentServiceImpl&lt;/b&gt;&lt;/p&gt;&lt;hr size=&quot;1&quot;/&gt;&lt;p style=&quot;margin:0 0 0 4px;line-height:1.6;&quot;&gt;+ StudentServiceImpl(StudentRepository, StudentMapper, StudentAppUserRepository, AppUserRepository): &lt;/p&gt;&lt;hr size=&quot;1&quot;/&gt;&lt;p style=&quot;margin:0 0 0 4px;line-height:1.6;&quot;&gt;- userRepository: AppUserRepository&lt;br/&gt;- studentRepository: StudentRepository&lt;br/&gt;- log: Logger&lt;br/&gt;- studentMapper: StudentMapper&lt;br/&gt;- studentAppUserRepository: StudentAppUserRepository&lt;/p&gt;&lt;hr size=&quot;1&quot;/&gt;&lt;p style=&quot;margin:0 0 0 4px;line-height:1.6;&quot;&gt;+ modifyStudentById(StudentDto, Long): StudentDto&lt;br/&gt;+ createStudent(StudentDto, String, String): StudentDto&lt;br/&gt;+ getStudentByFirstAndLastName(String, String): Optional&amp;lt;StudentDto&amp;gt;&lt;br/&gt;+ getStudentByUsername(String): Optional&amp;lt;StudentDto&amp;gt;&lt;br/&gt;+ deleteStudentById(Long): StudentDto&lt;br/&gt;+ getAllStudents(Integer, Integer): Page&amp;lt;StudentDto&amp;gt;&lt;br/&gt;+ getStudentById(Long): StudentDto&lt;br/&gt;+ validPassportNumber(String): boolean&lt;br/&gt;+ setValidity(Long, boolean): String&lt;/p&gt;" style="verticalAlign=top;align=left;overflow=fill;fontSize=14;fontFamily=Helvetica;html=1;rounded=0;shadow=0;comic=0;labelBackgroundColor=none;strokeWidth=1;">
      <mxGeometry x="1736" y="291" width="487" height="409" as="geometry" />
    </mxCell>
    <mxCell id="node87" parent="1" vertex="1" value="&lt;p style=&quot;margin:0px;margin-top:4px;text-align:center;&quot;&gt;&lt;b&gt;TokenNotFoundException&lt;/b&gt;&lt;/p&gt;&lt;hr size=&quot;1&quot;/&gt;&lt;p style=&quot;margin:0 0 0 4px;line-height:1.6;&quot;&gt;+ TokenNotFoundException(String): &lt;/p&gt;" style="verticalAlign=top;align=left;overflow=fill;fontSize=14;fontFamily=Helvetica;html=1;rounded=0;shadow=0;comic=0;labelBackgroundColor=none;strokeWidth=1;">
      <mxGeometry x="740" y="3851" width="263" height="68" as="geometry" />
    </mxCell>
    <mxCell id="node45" parent="1" vertex="1" value="&lt;p style=&quot;margin:0px;margin-top:4px;text-align:center;&quot;&gt;&lt;b&gt;UserLogin&lt;/b&gt;&lt;/p&gt;&lt;hr size=&quot;1&quot;/&gt;&lt;p style=&quot;margin:0 0 0 4px;line-height:1.6;&quot;&gt;+ UserLogin(String, String): &lt;/p&gt;&lt;hr size=&quot;1&quot;/&gt;&lt;p style=&quot;margin:0 0 0 4px;line-height:1.6;&quot;&gt;- username: String&lt;br/&gt;- password: String&lt;/p&gt;&lt;hr size=&quot;1&quot;/&gt;&lt;p style=&quot;margin:0 0 0 4px;line-height:1.6;&quot;&gt;+ getUsername(): String&lt;br/&gt;+ getPassword(): String&lt;br/&gt;+ setUsername(String): void&lt;br/&gt;+ setPassword(String): void&lt;br/&gt;+ equals(Object): boolean&lt;br/&gt;# canEqual(Object): boolean&lt;br/&gt;+ hashCode(): int&lt;br/&gt;+ toString(): String&lt;/p&gt;" style="verticalAlign=top;align=left;overflow=fill;fontSize=14;fontFamily=Helvetica;html=1;rounded=0;shadow=0;comic=0;labelBackgroundColor=none;strokeWidth=1;">
      <mxGeometry x="502" y="2748" width="209" height="313" as="geometry" />
    </mxCell>
    <mxCell id="node62" parent="1" vertex="1" value="&lt;p style=&quot;margin:0px;margin-top:4px;text-align:center;&quot;&gt;&lt;b&gt;UserNotFoundException&lt;/b&gt;&lt;/p&gt;&lt;hr size=&quot;1&quot;/&gt;&lt;p style=&quot;margin:0 0 0 4px;line-height:1.6;&quot;&gt;+ UserNotFoundException(String): &lt;/p&gt;" style="verticalAlign=top;align=left;overflow=fill;fontSize=14;fontFamily=Helvetica;html=1;rounded=0;shadow=0;comic=0;labelBackgroundColor=none;strokeWidth=1;">
      <mxGeometry x="1348" y="3851" width="254" height="68" as="geometry" />
    </mxCell>
    <mxCell id="node30" parent="1" vertex="1" value="&lt;p style=&quot;margin:0px;margin-top:4px;text-align:center;&quot;&gt;&lt;b&gt;XmlValidator&lt;/b&gt;&lt;/p&gt;&lt;hr size=&quot;1&quot;/&gt;&lt;p style=&quot;margin:0 0 0 4px;line-height:1.6;&quot;&gt;+ XmlValidator(): &lt;/p&gt;&lt;hr size=&quot;1&quot;/&gt;&lt;p style=&quot;margin:0 0 0 4px;line-height:1.6;&quot;&gt;- log: Logger&lt;br/&gt;- XML_SCHEMA_PATH: String&lt;/p&gt;&lt;hr size=&quot;1&quot;/&gt;&lt;p style=&quot;margin:0 0 0 4px;line-height:1.6;&quot;&gt;+ isXmlValid(String): boolean&lt;/p&gt;" style="verticalAlign=top;align=left;overflow=fill;fontSize=14;fontFamily=Helvetica;html=1;rounded=0;shadow=0;comic=0;labelBackgroundColor=none;strokeWidth=1;">
      <mxGeometry x="449" y="3368" width="219" height="145" as="geometry" />
    </mxCell>
    <mxCell id="edge4" edge="1" value="" parent="1" source="node19" target="node83" style="html=1;rounded=1;edgeStyle=orthogonalEdgeStyle;dashed=1;startArrow=none;endArrow=block;endSize=12;strokeColor=#008200;exitX=0.500;exitY=0.000;exitDx=0;exitDy=0;entryX=0.500;entryY=1.000;entryDx=0;entryDy=0;">
      <mxGeometry width="50" height="50" relative="1" as="geometry">
        <Array as="points" />
      </mxGeometry>
    </mxCell>
    <mxCell id="edge0" edge="1" value="" parent="1" source="node72" target="node43" style="html=1;rounded=1;edgeStyle=orthogonalEdgeStyle;dashed=1;startArrow=none;endArrow=block;endSize=12;strokeColor=#008200;exitX=0.500;exitY=0.000;exitDx=0;exitDy=0;entryX=0.500;entryY=1.000;entryDx=0;entryDy=0;">
      <mxGeometry width="50" height="50" relative="1" as="geometry">
        <Array as="points" />
      </mxGeometry>
    </mxCell>
    <mxCell id="edge1" edge="1" value="" parent="1" source="node10" target="node60" style="html=1;rounded=1;edgeStyle=orthogonalEdgeStyle;dashed=1;startArrow=none;endArrow=block;endSize=12;strokeColor=#008200;exitX=0.500;exitY=0.000;exitDx=0;exitDy=0;entryX=0.500;entryY=1.000;entryDx=0;entryDy=0;">
      <mxGeometry width="50" height="50" relative="1" as="geometry">
        <Array as="points" />
      </mxGeometry>
    </mxCell>
    <mxCell id="edge6" edge="1" value="" parent="1" source="node31" target="node22" style="html=1;rounded=1;edgeStyle=orthogonalEdgeStyle;dashed=1;startArrow=none;endArrow=block;endSize=12;strokeColor=#008200;exitX=0.500;exitY=0.000;exitDx=0;exitDy=0;entryX=0.500;entryY=1.000;entryDx=0;entryDy=0;">
      <mxGeometry width="50" height="50" relative="1" as="geometry">
        <Array as="points" />
      </mxGeometry>
    </mxCell>
    <mxCell id="edge3" edge="1" value="" parent="1" source="node71" target="node52" style="html=1;rounded=1;edgeStyle=orthogonalEdgeStyle;dashed=1;startArrow=none;endArrow=block;endSize=12;strokeColor=#008200;exitX=0.500;exitY=0.000;exitDx=0;exitDy=0;entryX=0.500;entryY=1.000;entryDx=0;entryDy=0;">
      <mxGeometry width="50" height="50" relative="1" as="geometry">
        <Array as="points" />
      </mxGeometry>
    </mxCell>
    <mxCell id="edge7" edge="1" value="" parent="1" source="node55" target="node57" style="html=1;rounded=1;edgeStyle=orthogonalEdgeStyle;dashed=1;startArrow=none;endArrow=block;endSize=12;strokeColor=#008200;exitX=0.500;exitY=0.000;exitDx=0;exitDy=0;entryX=0.500;entryY=1.001;entryDx=0;entryDy=0;">
      <mxGeometry width="50" height="50" relative="1" as="geometry">
        <Array as="points" />
      </mxGeometry>
    </mxCell>
    <mxCell id="edge8" edge="1" value="" parent="1" source="node29" target="node58" style="html=1;rounded=1;edgeStyle=orthogonalEdgeStyle;dashed=1;startArrow=none;endArrow=block;endSize=12;strokeColor=#008200;exitX=0.500;exitY=0.000;exitDx=0;exitDy=0;entryX=0.500;entryY=1.000;entryDx=0;entryDy=0;">
      <mxGeometry width="50" height="50" relative="1" as="geometry">
        <Array as="points" />
      </mxGeometry>
    </mxCell>
    <mxCell id="edge2" edge="1" value="" parent="1" source="node47" target="node70" style="html=1;rounded=1;edgeStyle=orthogonalEdgeStyle;dashed=1;startArrow=none;endArrow=block;endSize=12;strokeColor=#008200;exitX=0.500;exitY=0.000;exitDx=0;exitDy=0;entryX=0.500;entryY=1.000;entryDx=0;entryDy=0;">
      <mxGeometry width="50" height="50" relative="1" as="geometry">
        <Array as="points" />
      </mxGeometry>
    </mxCell>
    <mxCell id="edge5" edge="1" value="" parent="1" source="node26" target="node61" style="html=1;rounded=1;edgeStyle=orthogonalEdgeStyle;dashed=1;startArrow=none;endArrow=block;endSize=12;strokeColor=#008200;exitX=0.500;exitY=0.000;exitDx=0;exitDy=0;entryX=0.500;entryY=1.000;entryDx=0;entryDy=0;">
      <mxGeometry width="50" height="50" relative="1" as="geometry">
        <Array as="points" />
      </mxGeometry>
    </mxCell>
  </root>
</mxGraphModel>